<svg width="40" height="40" viewBox="0 0 40 40" fill="none" xmlns="http://www.w3.org/2000/svg"><rect width="40" height="40" rx="12" fill="#00CAF2"/><g clip-path="url(#clip0_2299_219)"><path d="M12.5 28C16 28 17 27 17 27V29.833C17 31.21 15.359 32 12.5 32C9.641 32 8 31.21 8 29.833V27.073C8 27.073 9 28 12.5 28ZM23 27.074V29.834C23 31.211 24.641 32.001 27.5 32.001C30.359 32.001 32 31.211 32 29.834V27.001C32 27.001 31 28.001 27.5 28.001C24 28.001 23 27.075 23 27.075V27.074ZM27.5 8C24.85 8 23 8.617 23 9.5V11.967C23.178 12.22 24.319 13 27.5 13C30.681 13 31.822 12.22 32 11.967V9.5C32 8.617 30.15 8 27.5 8ZM23 14V16.833C23 18.21 24.641 19 27.5 19C30.359 19 32 18.21 32 16.833V14C32 14 31 15 27.5 15C24 15 23 14 23 14ZM17 14H23V12H17V14ZM27.5 21C25.699 21 24.285 21.289 23.553 21.749L17 16.111V14C17 14 16 15 12.5 15C9 15 8 14 8 14V16.833C8 18.04 9.262 18.795 11.5 18.963V21.032C9.398 21.168 8 21.733 8 22.499V24.966C8.178 25.219 9.319 25.999 12.5 25.999C15.544 25.999 16.779 25.188 17 24.92V22.499C17 21.732 15.602 21.167 13.5 21.032V18.963C14.76 18.868 15.707 18.586 16.297 18.143L23 23.911V24.966C23.178 25.219 24.319 25.999 27.5 25.999C30.544 25.999 31.779 25.188 32 24.92V22.499C32 21.616 30.15 20.999 27.5 20.999V21ZM12.5 13C15.681 13 16.822 12.22 17 11.967V9.5C17 8.617 15.15 8 12.5 8C9.85 8 8 8.617 8 9.5V11.967C8.178 12.22 9.319 13 12.5 13Z" fill="white"/></g><defs><clipPath id="clip0_2299_219"><rect width="24" height="24" fill="white" transform="translate(8 8)"/></clipPath></defs></svg>