<svg width="40" height="40" viewBox="0 0 40 40" fill="none" xmlns="http://www.w3.org/2000/svg"><rect width="40" height="40" rx="12" fill="#F13D9D"/><g clip-path="url(#clip0_2299_240)"><path d="M27 8H13C10.24 8 8 10.24 8 13V27C8 29.76 10.24 32 13 32H27C29.76 32 32 29.76 32 27V13C32 10.24 29.76 8 27 8ZM22 14C22 13.45 22.45 13 23 13H26C26.55 13 27 13.45 27 14V17C27 17.55 26.55 18 26 18H23C22.45 18 22 17.55 22 17V14ZM15.5 13C16.88 13 18 14.12 18 15.5C18 16.88 16.88 18 15.5 18C14.12 18 13 16.88 13 15.5C13 14.12 14.12 13 15.5 13ZM18.17 24.75L16.17 26.75C15.78 27.14 15.15 27.14 14.76 26.75L12.76 24.75C12.37 24.36 12.37 23.73 12.76 23.34L14.76 21.34C15.15 20.95 15.78 20.95 16.17 21.34L18.17 23.34C18.56 23.73 18.56 24.36 18.17 24.75ZM26.64 27H22.36C21.61 27 21.15 26.17 21.55 25.53L23.69 22.11C24.07 21.51 24.94 21.51 25.32 22.11L27.46 25.53C27.86 26.17 27.4 27 26.65 27H26.64Z" fill="white"/></g><defs><clipPath id="clip0_2299_240"><rect width="24" height="24" fill="white" transform="translate(8 8)"/></clipPath></defs></svg>