<svg width="40" height="40" viewBox="0 0 40 40" fill="none" xmlns="http://www.w3.org/2000/svg"><rect width="40" height="40" rx="12" fill="#2EE68A"/><g clip-path="url(#clip0_2299_226)"><path d="M25.7439 24.3301C27.1559 22.6051 28.0059 20.4031 28.0059 18.0061C28.0059 12.4921 23.5199 8.0061 18.0059 8.0061C12.4919 8.0061 8.00586 12.4921 8.00586 18.0061C8.00586 23.5201 12.4919 28.0061 18.0059 28.0061C20.4039 28.0061 22.6059 27.1561 24.3299 25.7441L30.5239 31.9371L31.9379 30.5231L25.7439 24.3301ZM22.9999 21.0001H12.9999V19.0001H13.9999V16.0001H15.9999V19.0001H16.9999V13.0001H18.9999V19.0001H19.9999V15.0001H21.9999V19.0001H22.9999V21.0001Z" fill="white"/></g><defs><clipPath id="clip0_2299_226"><rect width="24" height="24" fill="white" transform="translate(8 8)"/></clipPath></defs></svg>