<svg width="120" height="120" viewBox="0 0 120 120" fill="none" xmlns="http://www.w3.org/2000/svg">
<path fill-rule="evenodd" clip-rule="evenodd" d="M89.9701 60.2735L95.1547 65.5466H92.5327L88.2545 61.1914H85.9292V65.5466H83.834V55.3579H85.9292V59.66H88.2545L92.4805 55.3579H94.7964L89.9701 60.2735Z" fill="#4143ED"/>
<path fill-rule="evenodd" clip-rule="evenodd" d="M79.9804 63.3147V55.3579H81.9V65.5466H79.3896L73.5358 57.7034V65.5466H71.5996V55.3579H74.1006L79.9804 63.3147Z" fill="#4143ED"/>
<path fill-rule="evenodd" clip-rule="evenodd" d="M63.1689 55.3579H65.4516L70.4582 65.5442H68.3583L67.2786 63.3147H61.3584L60.3239 65.5442H58.1504L63.1713 55.3579H63.1689ZM62.1605 61.7108H66.4956L64.3197 57.1985L62.1605 61.7108Z" fill="#4143ED"/>
<path fill-rule="evenodd" clip-rule="evenodd" d="M57.7518 58.1744C57.7518 58.7034 57.6735 59.1382 57.5192 59.4764C57.365 59.8146 57.0162 60.0875 56.7504 60.2904C57.0708 60.4764 57.4646 60.7518 57.6568 61.1189C57.849 61.4861 57.944 61.9765 57.944 62.59C57.944 63.2036 57.849 63.7011 57.6568 64.0804C57.4646 64.462 57.1989 64.7616 56.8572 64.979C56.5155 65.1964 56.105 65.3461 55.6257 65.4258C55.1464 65.5055 54.6244 65.5442 54.0573 65.5442H48.0825V55.3579H54.0573C54.5864 55.3579 55.0776 55.3941 55.5284 55.469C55.9793 55.5439 56.3708 55.684 56.6982 55.8942C57.0257 56.1043 57.2843 56.3918 57.4718 56.7589C57.6592 57.1261 57.7518 57.5971 57.7518 58.172V58.1744ZM50.1113 59.6624H54.3515C55.2484 59.6624 55.7823 59.2831 55.7823 58.3193C55.7823 57.515 55.2105 57.0101 54.4464 57.0101H50.1137V59.6648L50.1113 59.6624ZM50.1113 61.0054V63.8292H54.3539C55.2674 63.8292 55.8345 63.4548 55.8677 62.4451C55.8986 61.4982 55.3718 61.0054 54.3634 61.0054H50.1113Z" fill="#4143ED"/>
<path fill-rule="evenodd" clip-rule="evenodd" d="M41.7094 61.8025L38.7956 65.5466H36.5391L40.6606 60.2494L36.8665 55.3579H38.9997L41.7094 58.8532L44.4287 55.3579H46.6164L42.808 60.2494L46.9154 65.5466H44.6114L41.7094 61.8025Z" fill="#4143ED"/>
<path fill-rule="evenodd" clip-rule="evenodd" d="M33.5179 61.1914H28.6513V63.8268H33.8477L35.5372 65.5466H26.5703V55.3579H35.5087L33.8288 57.0705H28.6513V59.66H33.5179V61.1914Z" fill="#4143ED"/>
<path fill-rule="evenodd" clip-rule="evenodd" d="M17.5086 62.3966V65.5464H15.4395V55.3601L21.2718 55.278C21.7725 55.2708 22.2589 55.3239 22.7288 55.4181C23.1986 55.5099 23.6162 55.6911 23.9816 55.9543C24.347 56.2201 24.6365 56.5848 24.8501 57.0486C25.0636 57.5124 25.1728 58.1114 25.1728 58.8457C25.1728 59.5801 25.0636 60.1888 24.8429 60.6429C24.6246 61.097 24.3328 61.4497 23.9674 61.6961C23.6019 61.9424 23.1843 62.1067 22.7145 62.1912C22.2447 62.2758 21.763 62.3072 21.2695 62.3169L17.5062 62.399L17.5086 62.3966ZM23.125 58.8554C23.125 57.8433 22.6884 57.1041 21.5518 57.1041H17.5086V60.6042H21.5708C22.7074 60.6042 23.1226 59.8699 23.1226 58.8554H23.125Z" fill="#4143ED"/>
<path fill-rule="evenodd" clip-rule="evenodd" d="M7.02088 55.3579H9.30353L14.3102 65.5442H12.2102L11.1306 63.3147H5.20805L4.1735 65.5442H2L7.02088 55.3579ZM6.01244 61.7108H10.3476L8.1717 57.1985L6.01244 61.7108Z" fill="#4143ED"/>
<path fill-rule="evenodd" clip-rule="evenodd" d="M113.046 65.3145L107.911 70.5417L102.776 65.3145L107.911 60.0873L113.046 65.3145ZM97.8218 60.2708L100.871 63.3748L107.911 56.2079L114.951 63.3748L118 60.2708L107.911 50L97.8218 60.2708Z" fill="#4143ED"/>
</svg>
