<svg width="120" height="120" viewBox="0 0 120 120" fill="none" xmlns="http://www.w3.org/2000/svg">
<g clip-path="url(#clip0_2300_607)">
<mask id="mask0_2300_607" style="mask-type:luminance" maskUnits="userSpaceOnUse" x="10" y="42" width="100" height="36">
<path d="M110 42.4561H10V77.5438H110V42.4561Z" fill="white"/>
</mask>
<g mask="url(#mask0_2300_607)">
<path d="M96.0557 50.3108L96.2271 50.3154C97.9649 50.4031 98.9026 51.6338 98.8035 53.6926L98.4579 60.8698L98.5684 60.8759C99.5789 58.3066 101.527 56.9689 104.148 57.1005C107.986 57.2926 109.985 60.1558 109.764 64.7558L109.301 74.3856C109.194 76.6049 107.989 77.6215 106.347 77.5391C104.704 77.4566 103.604 76.3251 103.711 74.1058L104.107 65.854C104.213 63.6522 103.316 62.2435 101.468 62.1514C99.5886 62.0575 98.457 63.5251 98.3518 65.7093L97.9623 73.8172C97.8553 76.0365 96.635 77.0522 95.0078 76.9707C94.3139 76.9356 93.7139 76.7136 93.2604 76.3014L93.1671 76.2127C93.098 76.1409 93.0454 76.0629 92.9727 75.89C92.9008 75.7189 92.8648 75.3944 92.8964 75.2119C92.942 74.9514 93.0885 74.7408 93.3806 74.3198C94.9315 72.0803 95.2534 68.8093 93.835 66.4803L93.1911 65.4126C93.0824 65.2263 93.0108 65.0953 92.9719 65.008L92.8996 64.8221C92.8859 64.7838 92.8762 64.7531 92.8683 64.7215C92.8525 64.6601 92.8447 64.5952 92.8271 64.4672C92.8017 64.2689 92.8139 64.0145 92.8385 63.5058L93.3236 53.3996C93.4161 51.4953 94.3523 50.3834 95.8888 50.3142L96.0557 50.3108ZM60.6955 46.4356L60.9695 46.2754C63.3904 44.8858 65.7968 44.2127 65.0166 47.1163C64.8262 47.8242 64.5368 48.475 64.1771 49.0654C64.557 49.0084 64.9444 48.9568 65.3302 48.9131L65.6603 48.8775C68.8976 48.5476 71.834 48.8189 68.9982 51.1136C66.1201 53.4417 62.3955 54.1005 59.9736 53.804C59.985 54.0435 59.9771 54.2987 59.9508 54.5698L57.9999 74.4619C57.7841 76.6637 56.521 77.6093 54.9087 77.4444C53.2797 77.2786 52.2262 76.0952 52.4411 73.8944L54.3218 54.7259C52.1236 55.3733 47.8754 54.983 44.621 52.4786C41.5139 50.0873 45.2938 49.9549 48.7683 50.3619L48.5946 50.1579C47.0339 48.2897 46.398 46.5007 50.085 47.3505C50.9824 47.5575 51.7955 47.8294 52.5236 48.1452L52.4775 47.7394C52.2234 45.1577 52.7197 42.4461 55.6613 44.9128L55.8639 45.0873C56.2482 44.5487 56.7271 44.0128 57.3131 43.4961C60.2955 40.8654 60.8859 43.7382 60.6955 46.4356ZM75.0806 62.2829L77.1034 72.3014C77.5166 74.3496 76.6218 75.5435 75.1131 75.861C73.7096 76.1558 72.542 75.5365 72.0368 73.8084L71.9517 73.3847L71.8473 73.4066C71.342 75.454 69.5648 76.9031 67.6087 77.3154C64.5771 77.9522 61.6859 76.1961 61.0122 72.8628C60.3157 69.4101 62.2701 66.9882 66.4227 65.8154L70.1797 64.7601L69.9675 63.711C69.6701 62.2391 68.5806 61.6215 67.192 61.9128C66.0569 62.1514 65.5052 62.6566 64.7429 64.1215C64.2701 64.9452 63.6675 65.4242 62.8604 65.5944C61.5911 65.861 60.5148 65.1522 60.2552 63.8663C60.1692 63.4426 60.1525 63.1286 60.1999 62.7487C60.4262 60.3189 62.8631 58.3601 66.5964 57.5751C70.9411 56.661 74.3324 58.5768 75.0806 62.2829ZM35.6683 57.7882C36.2499 58.1496 36.6245 58.8689 36.7762 59.9461C36.9096 60.8891 36.7569 61.6338 36.335 62.1944C35.9166 62.7715 35.2087 63.1329 34.235 63.3286C32.4297 63.6452 32.0376 64.6312 32.3324 66.7198L33.3429 73.8777C33.628 75.8979 32.7552 77.1268 31.1499 77.3628C29.5306 77.6005 28.3525 76.6733 28.0675 74.6522L26.228 61.6172C25.9569 59.697 26.8473 58.4829 28.378 58.2584C29.849 58.0417 31.0096 58.9549 31.2824 60.8917L31.4113 61.8005L31.5148 61.7856C31.5675 59.2505 32.5701 57.7628 34.1903 57.5242C34.7841 57.4365 35.2806 57.5189 35.6683 57.7882ZM25.1324 62.5829L26.5806 72.8408C26.8771 74.9382 25.9008 76.0891 24.3569 76.3172C22.9192 76.5286 21.7754 75.8303 21.3683 74.0505L21.3069 73.6172L21.1999 73.6329C20.5666 75.6715 18.6833 77.0277 16.6806 77.3224C13.5771 77.7786 10.7569 75.8242 10.2745 72.4101C9.77536 68.8768 11.8964 66.5479 16.1657 65.618L20.028 64.7847L19.8762 63.711C19.6631 62.2022 18.5973 61.511 17.1762 61.7198C16.0148 61.8908 15.4262 62.3663 14.5675 63.8014C14.0411 64.6049 13.4017 65.0522 12.5762 65.1733C11.2771 65.3645 10.2297 64.5812 10.0438 63.2645C9.98238 62.8312 9.98501 62.5128 10.0552 62.1312C10.428 59.6882 13.0096 57.8584 16.8315 57.2952C21.2806 56.6408 24.5964 58.7882 25.1324 62.5829ZM45.3622 57.4514C49.7701 57.8093 52.4938 60.604 52.2008 64.3636L51.4087 74.5251C51.2464 76.6022 50.0648 77.4908 48.535 77.3672C47.1113 77.2514 46.1622 76.3286 46.1499 74.5303L46.1832 74.1014L46.0771 74.0926C45.0359 75.9084 42.9411 76.7917 40.9569 76.6312C37.8824 76.3812 35.5938 73.8803 35.8569 70.4996C36.1289 66.997 38.6596 65.2329 42.9534 65.2882L46.835 65.3444L46.9183 64.2803C47.035 62.7865 46.1596 61.8865 44.7517 61.7724C43.6008 61.6786 42.935 62.0049 41.8061 63.1917C41.1306 63.8452 40.4218 64.1329 39.6043 64.0663C38.3175 63.9619 37.4789 62.9786 37.5806 61.6733C37.6139 61.2444 37.6841 60.94 37.8332 60.5891C38.7104 58.3286 41.5762 57.1444 45.3622 57.4514ZM90.0175 59.5961C90.1815 59.8566 90.2999 60.1294 90.3745 60.4137C90.6736 61.5531 90.2587 62.5637 88.899 62.9356C88.3078 63.097 87.4841 63.0356 86.9174 62.6873L86.5689 62.4575C85.6417 61.8545 84.666 61.3292 83.3017 61.7022C82.0306 62.0496 81.3411 62.9207 81.5999 63.9084C81.8069 64.6961 82.4262 65.0645 84.056 64.9961L87.0104 64.8522C90.671 64.6768 92.5543 65.7593 93.271 68.4891C94.2736 72.3075 91.9069 75.5391 87.4297 76.7637C83.3218 77.8865 80.3552 77.0829 79.0525 75.1961C78.842 74.8768 78.6753 74.5452 78.5964 74.2435C78.2534 72.9365 78.8683 71.7821 80.0508 71.4584C80.878 71.2321 81.6736 71.4277 82.6473 72.0584C83.8236 72.9215 84.9604 73.1487 86.4236 72.7487C87.7832 72.3777 88.5008 71.5531 88.2411 70.5645C88.0306 69.761 87.399 69.4672 85.8482 69.5321L82.8736 69.6637C79.5122 69.8286 77.3754 68.3847 76.6499 65.6215C75.6868 61.954 77.8473 58.904 82.2946 57.6873C85.9745 56.6812 88.9139 57.7444 90.0175 59.5961ZM70.8596 68.1277L67.9473 68.9698C66.5824 69.3803 65.9376 70.2742 66.1561 71.3575C66.3929 72.5251 67.3867 73.0566 68.656 72.79C70.2692 72.4505 71.4464 71.0382 71.1157 69.3979L70.8596 68.1277ZM20.5148 68.233L17.5192 68.9031C16.1148 69.2338 15.4096 70.0987 15.5666 71.2075C15.7359 72.4031 16.7096 73.0022 18.0096 72.811C19.6604 72.568 20.9359 71.2128 20.6982 69.5329L20.5148 68.233ZM43.5534 68.74C42.135 68.7461 41.2754 69.4189 41.1894 70.518C41.0973 71.7022 41.9043 72.4926 43.1911 72.597C44.8271 72.7303 46.3394 71.7128 46.4692 70.0479L46.5692 68.7601L43.5534 68.74Z" fill="#4143ED"/>
</g>
</g>
<defs>
<clipPath id="clip0_2300_607">
<rect width="100" height="35.0877" fill="white" transform="translate(10 42.4561)"/>
</clipPath>
</defs>
</svg>
