<svg width="120" height="120" viewBox="0 0 120 120" fill="none" xmlns="http://www.w3.org/2000/svg">
<g clip-path="url(#clip0_2300_542)">
<path d="M31.6638 63.7988H5.4929C3.79665 63.7988 1.88505 65.175 1.22573 66.8668C0.564928 68.5704 1.4042 69.9466 3.10045 69.9466H29.2714C30.9676 69.9466 32.8792 68.5704 33.5385 66.8668C34.1993 65.1735 33.3601 63.7988 31.6638 63.7988Z" fill="#4143ED"/>
<path d="M35.8098 54.9282H22.2339C20.5377 54.9282 18.6261 56.3044 17.9653 57.9962C17.3045 59.6998 18.1452 61.0642 19.8415 61.0642H33.4174C35.1136 61.0642 37.0252 59.6998 37.6845 57.9962C38.3453 56.3029 37.5061 54.9282 35.8098 54.9282Z" fill="#4143ED"/>
<path d="M39.5787 45.9546H13.0744C11.3782 45.9546 9.46658 47.3308 8.80725 49.0226C8.14645 50.7159 8.98573 52.0906 10.6835 52.0906H37.1877C38.884 52.0906 40.7941 50.7144 41.4549 49.0226C42.1157 47.3293 41.2764 45.9546 39.5787 45.9546Z" fill="#4143ED"/>
<path d="M114.545 48.4961C113.007 48.4961 111.694 48.7041 110.668 49.0728V51.9181C111.405 51.4063 112.799 51.0228 114.209 51.0228C115.025 51.0228 115.475 51.1511 115.475 51.4712C115.475 51.9328 114.818 52.0302 113.696 52.2234C111.998 52.5258 109.722 52.9432 109.722 55.0362C109.722 56.6174 110.7 57.498 112.464 57.498C113.696 57.498 114.643 57.0186 115.478 56.1071V57.3048H119V51.9653C118.982 49.8413 117.255 48.4976 114.545 48.4976V48.4961ZM115.478 54.2825H115.475C115.155 54.8091 114.609 55.1144 113.889 55.1144C113.457 55.1144 113.152 54.8902 113.152 54.5716C113.152 53.9978 113.727 53.8695 114.355 53.6925C114.74 53.5966 115.14 53.4845 115.478 53.2456V54.2825Z" fill="#4143ED"/>
<path d="M109.802 48.6715H105.906L103.312 52.3325V45.9546H99.6729V57.3047H103.312V53.5464L105.476 57.3047H109.785L106.582 52.3325L109.802 48.6715Z" fill="#4143ED"/>
<path d="M94.8982 48.5122C93.6474 48.5122 92.606 48.9916 91.8685 49.8559V48.673H88.3418V57.3032H91.9968V52.2189C92.2845 51.5138 92.7653 51.2115 93.4541 51.2115C94.2388 51.2115 94.7197 51.8044 94.7197 52.7779V57.3032H98.3895V52.1879C98.3895 49.9828 96.9956 48.5107 94.8967 48.5107L94.8982 48.5122Z" fill="#4143ED"/>
<path d="M86.9026 48.6714H83.2476V57.3046H86.9026V48.6714Z" fill="#4143ED"/>
<path d="M81.9965 51.1656V48.6876L74.0344 48.6714V51.229H77.6231L73.7129 54.7779V57.3046H82.1248V54.7469H78.0553L81.9965 51.1656Z" fill="#4143ED"/>
<path d="M69.6908 50.0787V48.6715H66.1641V57.3047H69.8191V52.3797C70.1067 51.6436 70.6687 51.356 71.567 51.356C72.1599 51.356 72.7367 51.4681 73.1216 51.6274V48.5742C72.9461 48.527 72.7529 48.5107 72.5611 48.5107C71.3428 48.5107 70.3663 49.0875 69.6923 50.0772L69.6908 50.0787Z" fill="#4143ED"/>
<path d="M59.8332 48.5122C56.6605 48.5122 54.625 50.2557 54.625 52.9874C54.625 55.7191 56.5631 57.4625 59.8332 57.4625C63.1033 57.4625 65.0414 55.7191 65.0414 52.9874C65.0414 50.2557 63.1033 48.5122 59.8332 48.5122ZM59.8332 54.9063C58.8568 54.9063 58.311 54.2205 58.311 52.9888C58.311 51.7572 58.8568 51.0713 59.8332 51.0713C60.8097 51.0713 61.3554 51.7572 61.3554 52.9888C61.3554 54.2205 60.8111 54.9063 59.8332 54.9063Z" fill="#4143ED"/>
<path d="M48.7443 53.5464L50.9081 57.3047H55.2195L52.0144 52.3325L55.2343 48.6715H51.3403L48.7443 52.3325V45.9546H45.1055V57.3047H48.7443V53.5464Z" fill="#4143ED"/>
<path d="M59.168 61.5425C56.6738 61.5425 54.9038 63.3081 54.9038 65.7964C54.9038 68.2847 56.5588 70.0503 59.168 70.0503C61.7773 70.0503 63.4323 68.2847 63.4323 65.7964C63.4323 63.3081 61.7744 61.5425 59.168 61.5425ZM59.168 68.5561C57.5736 68.5561 56.5927 67.5133 56.5927 65.7949C56.5927 64.0765 57.575 63.0337 59.168 63.0337C60.761 63.0337 61.7434 64.0765 61.7434 65.7949C61.7434 67.5133 60.761 68.5561 59.168 68.5561Z" fill="#4143ED"/>
<path d="M51.6973 62.3816C51.0085 61.7267 50.0896 61.3491 49.0054 61.3491C46.7384 61.3491 45.0967 63.1191 45.0952 65.5765C45.0952 68.1164 46.7059 69.8038 49.004 69.8038C50.0881 69.8038 51.0232 69.4115 51.7135 68.7226V69.3775C51.7135 70.8673 50.6973 71.7685 49.0217 71.7685C47.6588 71.7685 46.5584 71.3113 45.8681 70.7213V72.5562C46.7221 73.0134 47.8063 73.276 49.0217 73.276C51.4849 73.276 53.3051 71.9971 53.3051 69.3613V61.4819H51.6973V62.3816ZM51.715 66.9349C51.3374 67.8347 50.5158 68.3598 49.383 68.3598C47.7886 68.3598 46.821 67.3125 46.821 65.5912C46.821 63.8699 47.79 62.8403 49.383 62.8403C50.5158 62.8403 51.3374 63.3625 51.715 64.2652V66.9349Z" fill="#4143ED"/>
<path d="M86.9583 45.9546H83.2988V47.5402H86.9583V45.9546Z" fill="#4143ED"/>
</g>
<defs>
<clipPath id="clip0_2300_542">
<rect width="118" height="27.3214" fill="white" transform="translate(1 45.9546)"/>
</clipPath>
</defs>
</svg>
