<svg width="120" height="120" viewBox="0 0 120 120" fill="none" xmlns="http://www.w3.org/2000/svg">
<g clip-path="url(#clip0_2300_503)">
<path d="M101.233 39.9751V46.2608C98.2811 46.506 95.1923 46.3853 92.2606 46.7788C87.4445 47.4249 83.487 50.7249 82.8798 55.6881C90.5371 49.102 102.829 53.6868 103.856 63.9388C103.912 64.4894 103.743 65.1293 103.999 65.6196C103.996 65.661 104.001 65.7038 103.999 65.7453C103.063 82.4351 80.4749 84.7985 76.7575 69.0377C75.4061 63.3052 76.0988 53.4881 79.0858 48.3125C83.4694 40.7181 90.6603 40.2152 98.5928 39.9751H101.233ZM97.7065 66.0017C97.7065 61.7425 94.2544 58.2904 89.9952 58.2904C85.736 58.2904 82.2839 61.7425 82.2839 66.0017C82.2839 70.2609 85.736 73.713 89.9952 73.713C94.2544 73.713 97.7065 70.2609 97.7065 66.0017Z" fill="#4143ED"/>
<path d="M56.6055 52.2949V62.6035L66.4741 52.2949H74.2055L62.7668 65.4321L76.0913 79.0721H67.857L56.6055 68.7635V79.0721H50.3198V52.2949H56.6055Z" fill="#4143ED"/>
<path d="M16 61.7235L16.5959 59.1137C18.2981 53.3547 23.7905 49.2061 29.8286 49.2778V55.5635C25.6347 55.7143 22.3787 59.0407 22.2794 63.2258L16 63.2321V61.7235Z" fill="#4143ED"/>
<path d="M18.5144 65.6206H24.8001C24.8479 72.0459 32.3329 75.7016 37.3125 71.4072C42.6402 66.8124 39.2711 58.1494 32.343 58.0778V51.7921C43.6573 51.7606 50.2535 64.5106 43.6334 73.8323C35.8001 84.8612 18.3459 78.9589 18.5144 65.6206Z" fill="#4143ED"/>
</g>
<defs>
<clipPath id="clip0_2300_503">
<rect width="88" height="39.6792" fill="white" transform="translate(16 39.9751)"/>
</clipPath>
</defs>
</svg>
