<svg width="120" height="120" viewBox="0 0 120 120" fill="none" xmlns="http://www.w3.org/2000/svg">
<path fill-rule="evenodd" clip-rule="evenodd" d="M1 60.1002C1 53.6639 6.21245 48.4514 12.6488 48.437V52.6559C8.54509 52.6559 5.21892 55.9965 5.21892 60.1002C5.21892 64.2183 8.55949 67.5445 12.6632 67.5445C16.7525 67.5445 20.1075 64.2471 20.1075 60.0714H24.3264C24.3264 66.5366 19.114 71.7634 12.6632 71.7634C6.21245 71.7634 1 66.5366 1 60.1002Z" fill="#4143ED"/>
<path d="M7.52295 60.0999C7.52295 57.2489 9.84119 54.9307 12.6922 54.9307C15.5432 54.9307 17.8614 57.2489 17.8614 60.0999C17.8614 62.9653 15.5432 65.2692 12.6922 65.2692C9.84119 65.2692 7.52295 62.9653 7.52295 60.0999Z" fill="#4143ED"/>
<path d="M16.2773 53.5492C16.2773 51.9077 17.6021 50.583 19.2435 50.583C20.885 50.583 22.2097 51.9077 22.2097 53.5492C22.2097 55.1907 20.885 56.5154 19.2435 56.5154C17.6021 56.5154 16.2773 55.1907 16.2773 53.5492Z" fill="#4143ED"/>
<path d="M107.337 56.4859L106.977 58.2569C106.128 62.1015 105.825 63.3398 105.091 67.1699L104.932 67.3139L102.6 67.3859L102.485 67.2275L103.421 63.2822L103.694 61.9863C102.686 61.9575 101.693 61.9431 100.685 61.9431C99.9071 61.9431 99.3024 61.9575 98.6976 61.9719C98.3521 63.527 98.0641 64.8805 97.6321 67.1699L97.4737 67.3139L95.1411 67.3859L95.0259 67.2275L95.9618 63.2822L96.3362 61.5687C96.9554 58.8617 97.0705 58.2713 97.4305 55.7803L97.5889 55.6219C98.6544 55.4779 98.9136 55.4347 100.008 55.2043L100.123 55.3627L99.8784 56.5003L99.5184 58.2713L99.144 59.9416C99.9791 59.956 100.829 59.9704 101.678 59.9704C102.571 59.9704 103.161 59.956 104.155 59.9272C104.472 58.4585 104.601 57.6666 104.889 55.7659L105.048 55.6075C106.128 55.4635 106.372 55.4203 107.481 55.1899L107.596 55.3483L107.337 56.4859Z" fill="#4143ED"/>
<path d="M79.2156 61.6262C79.374 60.9639 79.4892 60.2871 79.4892 59.6535C79.4892 57.3209 77.9917 56.9321 77.1421 56.9321C73.528 56.9321 73.0672 62.5477 73.0672 63.3973C73.0672 65.2404 74.1759 66.0467 75.4143 66.0467C77.8765 66.0467 78.798 63.5269 79.2156 61.6262ZM81.6058 62.3462C81.1019 64.3332 79.6908 67.7602 75.3711 67.7602C72.3041 67.7602 70.6338 66.1763 70.6338 63.0373C70.6338 62.6341 70.6626 62.1878 70.7346 61.7126C70.749 61.5974 70.7634 61.4822 70.7778 61.367C71.6129 56.1834 73.8592 51.2589 78.798 51.2157C79.4604 51.2013 80.7851 51.1437 81.6922 50.9277L81.3611 53.0012C80.4395 53.2316 78.9996 53.3612 78.1501 53.3612C77.099 53.3756 76.379 53.7643 75.875 54.2539C75.6302 54.4843 75.4287 54.7579 75.2847 54.9883C75.1407 55.2186 75.0255 55.4346 74.9535 55.6074C75.6159 55.4058 76.3358 55.2762 77.1421 55.2762C80.1515 55.2762 81.9514 56.9609 81.9514 59.9271C81.9514 60.7191 81.8074 61.5398 81.6058 62.3462Z" fill="#4143ED"/>
<path d="M111.297 60.2299C111.844 59.7547 112.161 59.4523 112.924 58.718C113.716 57.9404 115.674 55.9246 116.034 55.5358L116.293 55.4062H118.928L119 55.6078C118.77 55.8094 118.655 55.9102 117.733 56.6877C117.373 56.9901 117.143 57.2205 116.711 57.6092L113.73 60.3594L117.287 67.127L117.143 67.3142L114.594 67.3862L114.407 67.2422C113.816 65.8167 113.658 65.4999 112.823 63.8296L111.21 60.5754C110.706 62.8217 110.389 64.2472 109.828 67.199L109.67 67.343L107.337 67.415L107.222 67.2566L108.158 63.3113L108.518 61.5978C109.137 58.8907 109.252 58.3004 109.612 55.8094L109.77 55.651C110.85 55.507 111.095 55.4638 112.204 55.2334L112.319 55.3918L112.074 56.5293L111.714 58.3004L111.297 60.2299Z" fill="#4143ED"/>
<path d="M91.0227 64.4056C90.7779 64.6072 90.5188 64.8375 90.2596 64.9959C89.6692 65.3703 88.8773 65.5287 88.2581 65.5287C86.1558 65.5287 85.5655 63.7576 85.5655 62.6633C85.5655 62.5481 85.6087 59.5819 88.0277 57.9404C89.3812 57.0189 90.8787 56.9757 91.6419 56.9757C91.9875 56.9757 92.333 56.9901 92.6786 56.9901L91.0227 64.4056ZM95.4288 55.435L95.3136 55.2478L92.1314 55.2334C90.0148 55.2334 87.0486 55.363 84.9031 57.8828C83.9384 59.0347 83.0601 61.0074 83.0601 62.8217C83.0601 65.6871 84.9751 67.343 87.3222 67.343C89.2804 67.343 90.2884 66.4934 90.6771 66.1767L90.5188 67.0982L90.6339 67.2566L92.7938 67.2134L92.9522 67.055C93.413 64.3192 93.5713 63.4408 94.3777 59.9131L95.4288 55.435Z" fill="#4143ED"/>
<path d="M34.7657 67.688C32.2747 67.688 28.6749 66.8961 29.9852 61.1364C30.4748 58.9766 31.9723 54.3833 38.1207 54.3833C44.0963 54.3833 43.2035 59.279 42.8435 61.0068C41.7348 65.8881 38.7542 67.688 34.7657 67.688ZM35.5864 65.1538C37.3431 65.1538 38.1639 63.3251 38.6966 60.9781C39.071 59.3222 39.4742 56.8887 37.3575 56.8887C35.5576 56.8887 34.7513 58.6166 34.2329 60.9781C33.729 63.1523 33.6138 65.1538 35.5864 65.1538Z" fill="#4143ED"/>
<path d="M49.3808 67.4143C48.2288 67.4143 46.3282 67.4143 45.5362 67.4431L45.4066 67.2847C45.6226 66.5215 46.1698 64.4481 46.7313 61.9282C47.1921 59.8836 47.5953 58.0837 47.7537 57.263C46.7889 57.2918 45.3058 57.2917 44.5715 57.3061L44.4419 57.1334C44.6291 56.5142 44.9027 55.4343 45.0754 54.7863L45.2914 54.6567C45.9394 54.6855 48.3728 54.6999 50.3455 54.6999C52.7213 54.6999 55.0396 54.6567 55.5291 54.6279L55.6875 54.7575C55.5147 55.3335 55.198 56.5142 55.0396 57.1046L54.8092 57.2486C53.8589 57.2342 53.1389 57.2342 51.7566 57.2342C51.6414 57.7525 51.267 59.2932 50.6479 62.029C50.1871 64.1025 49.7983 65.9888 49.5823 67.1983L49.3808 67.4143Z" fill="#4143ED"/>
<path d="M62.7283 57.5653C61.9508 57.5653 61.0869 57.5941 60.6981 57.5941C60.5829 58.1269 60.1077 60.0996 59.6758 62.0146C59.1718 64.2753 58.711 66.3919 58.5382 67.2703L58.3078 67.4143C57.1271 67.4143 55.6152 67.4143 54.4057 67.4431L54.2905 67.2847C54.5353 66.2911 55.1689 63.6129 55.7736 60.9347C56.3784 58.2421 56.9111 55.6071 57.0695 54.8583L57.2711 54.6855C58.567 54.6855 59.8773 54.7287 63.1027 54.7287C65.6226 54.7287 68.0704 54.6567 69.3663 54.6279L69.4815 54.7719C69.3087 55.4199 68.5888 58.5157 67.8976 61.5827C67.336 64.0593 66.8177 66.5215 66.6881 67.2271L66.5153 67.3711C65.4786 67.3711 63.5923 67.3711 62.5988 67.3999L62.498 67.2271C62.714 66.3919 63.1747 64.4481 63.7219 62.0434C64.1395 60.2148 64.5426 58.2709 64.7154 57.5509C64.2978 57.5797 63.4483 57.5653 62.7283 57.5653Z" fill="#4143ED"/>
</svg>
