<svg width="120" height="120" viewBox="0 0 120 120" fill="none" xmlns="http://www.w3.org/2000/svg">
<g clip-path="url(#clip0_2300_498)">
<path fill-rule="evenodd" clip-rule="evenodd" d="M54.9766 31.5449C55.029 31.5449 55.0737 31.5512 55.1465 31.5742C55.1861 31.5913 55.2054 31.6079 55.2178 31.623L55.2344 31.6426L66.2773 42.6133C66.3521 42.6872 66.3945 42.7846 66.3945 42.8857C66.3944 42.9867 66.3519 43.0833 66.2773 43.1572L59.6787 49.6904C59.6524 49.7165 59.6137 49.7421 59.5342 49.79C59.5011 49.7991 59.4557 49.8066 59.4023 49.8066C59.3497 49.8066 59.3046 49.7996 59.2314 49.7764C59.1919 49.7594 59.1725 49.7436 59.1602 49.7285L59.1445 49.709L48.1006 38.7383C48.0259 38.6644 47.9834 38.5669 47.9834 38.4658C47.9834 38.3648 48.0259 38.2673 48.1006 38.1934L54.7002 31.6611C54.7265 31.6351 54.7643 31.6085 54.8438 31.5605C54.8769 31.5515 54.923 31.5449 54.9766 31.5449ZM61.8701 44.7012C61.5254 44.7012 61.2461 44.9784 61.2461 45.3203C61.2461 45.6622 61.5255 45.9395 61.8701 45.9395C62.2147 45.9394 62.4941 45.6621 62.4941 45.3203C62.4941 44.9785 62.2147 44.7013 61.8701 44.7012Z" fill="#4143ED"/>
<path d="M71.1035 37.7979C71.1315 37.8257 71.1589 37.8658 71.209 37.9473C71.2189 37.982 71.2266 38.03 71.2266 38.0859C71.2266 38.1578 71.214 38.2165 71.2002 38.251C71.1804 38.3001 71.1608 38.3237 71.1416 38.3389L71.1211 38.3555L67.1777 42.2783C67.1142 42.1589 67.034 42.0498 66.9395 41.9561L62.7461 37.79L66.9268 33.6426L71.1035 37.7979Z" fill="#4143ED"/>
<path d="M64.083 30.9805C64.1555 30.9805 64.2144 30.9931 64.249 31.0068C64.2986 31.0266 64.3227 31.0455 64.3379 31.0645L64.3545 31.084L65.1641 31.8896L60.9814 36.0381L59.9053 34.9688L63.793 31.1025C63.8211 31.0747 63.8613 31.0467 63.9434 30.9971C63.9783 30.9873 64.0269 30.9805 64.083 30.9805Z" fill="#4143ED"/>
<path fill-rule="evenodd" clip-rule="evenodd" d="M59.6592 20C70.5031 20 79.3193 28.7242 79.3193 39.5C79.3193 50.2559 70.5232 59 59.6592 59C48.8154 58.9998 40 50.2757 40 39.5C40 28.7243 48.7954 20.0002 59.6592 20ZM64.083 30.0518C63.9153 30.0518 63.734 30.0788 63.5684 30.1445L63.5332 30.1582L63.501 30.1777C63.4967 30.1803 63.4918 30.1829 63.4873 30.1855C63.3958 30.2399 63.2524 30.3249 63.1309 30.4453L59.2441 34.3125L55.9297 31.0195C55.7901 30.8563 55.6244 30.7632 55.4824 30.707L55.4697 30.7021L55.457 30.6982C55.304 30.6477 55.1554 30.6162 54.9766 30.6162C54.8116 30.6162 54.633 30.6423 54.4697 30.707L54.4346 30.7207L54.4033 30.7402C54.399 30.7427 54.3943 30.7453 54.3896 30.748C54.3002 30.801 54.1581 30.8851 54.0381 31.0039L47.4395 37.5361C47.2008 37.7723 47.0469 38.1018 47.0469 38.4658C47.0469 38.8297 47.201 39.1593 47.4395 39.3955L58.4482 50.3311C58.5878 50.4943 58.7535 50.5873 58.8955 50.6436L58.9209 50.6533C59.074 50.7038 59.2234 50.7354 59.4023 50.7354C59.5672 50.7353 59.7451 50.7082 59.9082 50.6436L59.9434 50.6299L59.9756 50.6113C59.9799 50.6087 59.9837 50.6052 59.9883 50.6025C60.0422 50.5706 60.1148 50.5269 60.1904 50.4717C60.2931 50.4169 60.3961 50.3463 60.4873 50.2559L71.75 39.0449C71.9166 38.905 72.0117 38.7387 72.0693 38.5957C72.1355 38.4316 72.1631 38.2522 72.1631 38.0859C72.1631 37.9195 72.1355 37.7394 72.0693 37.5752L72.0557 37.541L72.0361 37.5088C72.0336 37.5047 72.031 37.5005 72.0283 37.4961C71.9736 37.4054 71.8871 37.2622 71.7656 37.1416L65.0508 30.4619C64.9095 30.2962 64.741 30.2018 64.5967 30.1445C64.4312 30.0789 64.2506 30.0518 64.083 30.0518Z" fill="#4143ED"/>
</g>
<g clip-path="url(#clip1_2300_498)">
<path fill-rule="evenodd" clip-rule="evenodd" d="M115.955 84.3681H113.872L112.722 80.1833C112.439 79.2865 111.872 78.8407 111.027 78.8407L108.262 78.8197V84.3629H106.336V70.9377C107.438 70.8224 109.001 70.7646 111.027 70.7646C112.649 70.7646 113.793 71.0426 114.464 71.6037C115.131 72.1596 115.467 73.1822 115.467 74.6611C115.467 75.7362 115.273 76.549 114.895 77.0944C114.512 77.6398 113.876 77.9702 112.995 78.0856V78.1852C113.866 78.4474 114.428 79.0925 114.69 80.1308L115.955 84.3681ZM55.6737 77.3615V77.4402C56.6499 77.5294 57.3371 77.8702 57.7464 78.4628C58.1558 79.0554 58.3607 79.905 58.3607 81.022C58.3607 82.3698 58.0404 83.2927 57.3948 83.7857C56.7546 84.2786 55.6316 84.5251 54.0362 84.5251C51.8427 84.5251 50.1529 84.4727 48.9723 84.3678V70.9426C50.0218 70.8377 51.5175 70.7853 53.4484 70.7853C55.1381 70.7853 56.3085 71.0266 56.9644 71.5143C57.6207 72.0019 57.946 72.9249 57.946 74.2884C57.946 75.2639 57.7621 75.998 57.4001 76.4962C57.0431 76.9944 56.466 77.2829 55.6737 77.3615ZM43.0788 77.4402V77.3615C43.8657 77.2829 44.4483 76.9944 44.8053 76.4963C45.1672 75.9981 45.3511 75.2639 45.3511 74.2884C45.3511 72.925 45.0259 72.002 44.37 71.5143C43.7136 71.0266 42.5438 70.7853 40.854 70.7853C38.9226 70.7853 37.427 70.8378 36.3774 70.9427V84.3678C37.558 84.4727 39.2478 84.5251 41.4414 84.5251C43.0368 84.5251 44.1597 84.2786 44.7999 83.7857C45.4455 83.2928 45.7658 82.3698 45.7658 81.022C45.7658 79.905 45.5609 79.0554 45.1516 78.4629C44.7422 77.8702 44.055 77.5294 43.0788 77.4402ZM33.2023 82.7523L33.302 84.2522C32.1214 84.357 30.2008 84.4095 27.5402 84.4095C26.7112 84.4095 26.0548 84.1945 25.5721 83.7592C25.0894 83.324 24.8429 82.7366 24.8321 81.9972V73.318C24.8429 72.5786 25.0894 71.9912 25.5721 71.556C26.0499 71.1207 26.7058 70.9057 27.5402 70.9057C30.2008 70.9057 32.1214 70.9581 33.302 71.063L33.2023 72.5786H27.8654C27.4771 72.5786 27.1993 72.673 27.0364 72.8618C26.8735 73.0506 26.7948 73.3705 26.7948 73.8267V76.5118H32.4628V78.0902H26.7948V81.5147C26.7948 81.971 26.8735 82.2909 27.0364 82.4797C27.1993 82.6684 27.4722 82.7628 27.8654 82.7628H33.2023V82.7523ZM22.2449 70.9427L22.2439 70.9479H20.1667L18.2407 81.2213C18.2041 81.4048 18.1571 81.6828 18.1043 82.0604C18.0793 82.2409 18.0578 82.3987 18.0392 82.5342V82.5359C18.0192 82.6831 18.0026 82.804 17.9889 82.8994H17.5428C17.4484 82.2911 17.354 81.7248 17.2489 81.2055L15.339 71.593C15.3023 71.4146 15.2128 71.2625 15.0764 71.1367C14.9399 71.0161 14.7824 70.9531 14.5989 70.9531H12.5155C12.1115 70.9531 11.8648 71.1629 11.7756 71.593L9.84964 81.1846C9.71847 81.772 9.61874 82.3435 9.5558 82.8994H9.10971C8.989 81.9764 8.91031 81.4048 8.87358 81.1846L6.94762 70.9479H4.88525L7.45666 83.8119C7.54586 84.1895 7.79251 84.3783 8.19659 84.3783H10.3797C10.5634 84.3783 10.7313 84.3206 10.8782 84.2105C11.0252 84.1004 11.1144 83.9588 11.1406 83.7909L13.0665 73.9266L13.3604 72.411H13.7697C13.8222 72.7467 13.9114 73.2501 14.0426 73.9266L15.9895 83.7909C16.0839 84.179 16.3358 84.373 16.7505 84.373H18.9127C19.3011 84.373 19.5578 84.1843 19.6733 83.8067L22.2439 70.9479H22.2449V70.9427ZM38.2878 76.6644H41.0115C41.9456 76.6644 42.5907 76.5176 42.9477 76.2291C43.3048 75.9355 43.4828 75.3691 43.4828 74.5248C43.4828 73.6962 43.2886 73.1403 42.9003 72.8624C42.512 72.5844 41.7984 72.4428 40.7596 72.4428H38.2878V76.6644ZM41.1479 82.8674L38.2878 82.8464V78.1633H41.0325C42.087 78.1791 42.8113 78.3574 43.205 78.7088C43.5982 79.0548 43.7978 79.7156 43.7978 80.6911C43.7978 81.5616 43.609 82.1385 43.2417 82.4321C42.869 82.7206 42.1711 82.8674 41.1479 82.8674ZM53.6063 76.6644H50.8826V72.4428H53.3545C54.3933 72.4428 55.1068 72.5844 55.4952 72.8623C55.8835 73.1403 56.0777 73.6962 56.0777 74.5247C56.0777 75.3691 55.8991 75.9354 55.5426 76.2291C55.1856 76.5175 54.54 76.6644 53.6063 76.6644ZM50.8826 82.8464L53.7428 82.8673C54.7659 82.8673 55.4639 82.7205 55.8365 82.4321C56.2038 82.1384 56.3926 81.5615 56.3926 80.691C56.3926 79.7156 56.1931 79.0548 55.7999 78.7087C55.4062 78.3574 54.6818 78.179 53.6269 78.1633H50.8826V82.8464ZM63.3459 80.3192H68.6984L69.9476 84.3678H71.9523L67.7276 71.467C67.6489 71.1157 67.4126 70.9426 67.0243 70.9426H65.0406C64.6684 70.9426 64.4268 71.1157 64.3216 71.467L60.1185 84.3678H62.1022L63.3459 80.3192ZM68.1942 78.6258L66.615 73.5284C66.5783 73.413 66.5206 73.2295 66.4467 72.983C66.433 72.9356 66.4193 72.8905 66.4066 72.8478L66.4061 72.846C66.3533 72.6675 66.3127 72.5305 66.279 72.4377H65.7542L65.4446 73.5284L63.8648 78.6258H68.1942ZM84.7624 83.6082V70.9435H82.8364V80.3778C82.8364 80.9861 82.873 81.6836 82.9361 82.4597H82.6422C82.5478 82.25 82.448 82.0297 82.338 81.7885C82.228 81.5473 82.1071 81.2955 81.9761 81.0281C81.8445 80.7659 81.7555 80.5718 81.7032 80.4565L77.636 71.5465C77.4418 71.1428 77.1586 70.9435 76.7805 70.9435H74.991C74.498 70.9435 74.251 71.2005 74.251 71.7039V84.3686H76.198V74.6197C76.198 73.896 76.1614 73.2719 76.0983 72.7527H76.3712C76.4343 72.9835 76.7018 73.6075 77.1689 74.6197L81.3569 83.7656C81.53 84.1693 81.8078 84.3686 82.1962 84.3686H84.0434C84.5213 84.3686 84.7624 84.1117 84.7624 83.6082ZM91.8521 78.1588H90.3355C90.4245 78.7041 90.4719 79.1656 90.4719 79.538V84.3626H88.5249V70.9375H90.4719V75.0647C90.4719 75.6206 90.4245 76.1292 90.3355 76.5802H91.8521L95.8034 70.9375H97.9236L94.1244 76.4229C93.9146 76.7218 93.6417 77.0312 93.3057 77.3564V77.4141C93.6676 77.7235 93.9826 78.0643 94.2398 78.4262L98.1706 84.3626H96.0083L91.8521 78.1588ZM100.632 84.3686H102.578V70.9435H100.632V84.3686ZM110.985 77.1679H108.261V72.4638C108.755 72.4481 109.663 72.4428 110.985 72.4428C111.945 72.4428 112.606 72.6054 112.963 72.9306C113.32 73.2504 113.499 73.8692 113.499 74.7765C113.499 75.6995 113.32 76.3235 112.963 76.6539C112.606 76.9843 111.945 77.1574 110.985 77.1679Z" fill="#4143ED"/>
</g>
<defs>
<clipPath id="clip0_2300_498">
<rect width="40" height="39" fill="white" transform="translate(40 20)"/>
</clipPath>
<clipPath id="clip1_2300_498">
<rect width="112" height="13.6943" fill="white" transform="translate(4 71)"/>
</clipPath>
</defs>
</svg>
