<svg width="120" height="120" viewBox="0 0 120 120" fill="none" xmlns="http://www.w3.org/2000/svg">
<g clip-path="url(#clip0_2300_602)">
<path fill-rule="evenodd" clip-rule="evenodd" d="M62.1077 59.3961C64.9239 59.0336 67.5364 58.0211 69.7902 56.5136H57.8027C56.0614 56.5136 54.6364 57.1624 54.6364 57.9549C54.6364 58.4574 55.2102 58.9036 56.0752 59.1611C56.5002 59.2499 56.9314 59.3236 57.3664 59.3824C57.5089 59.3911 57.6552 59.3961 57.8027 59.3961H62.1077ZM72.6602 54.1299C72.8839 53.9011 73.1027 53.6661 73.3139 53.4261C73.3314 53.3649 73.3402 53.3024 73.3402 53.2399C73.3402 52.4474 71.9152 51.7986 70.1739 51.7986H44.9814C45.7102 52.8461 46.5464 53.8124 47.4752 54.6811H70.1739C71.1789 54.6811 72.0789 54.4649 72.6602 54.1299ZM75.7089 49.9674C76.1964 49.0511 76.6064 48.0874 76.9314 47.0849H46.3589C44.6177 47.0849 43.1927 47.7336 43.1927 48.5261C43.1927 48.5399 43.1927 48.5536 43.1939 48.5674C43.2627 48.7274 43.3327 48.8874 43.4064 49.0449C43.8664 49.5836 45.0189 49.9674 46.3602 49.9674H75.7089ZM77.7827 40.5399C77.7302 39.5561 77.5977 38.5936 77.3927 37.6574H45.3739C43.6327 37.6574 42.2077 38.3061 42.2077 39.0986C42.2077 39.8911 43.6327 40.5399 45.3739 40.5399H77.7827ZM76.3239 34.3499C76.2514 34.1824 76.1752 34.0161 76.0977 33.8511C75.6289 33.3211 74.4852 32.9436 73.1577 32.9436H43.9327C43.4364 33.8599 43.0164 34.8236 42.6827 35.8261H73.1577C74.8989 35.8261 76.3239 35.1774 76.3239 34.3849C76.3239 34.3736 76.3239 34.3611 76.3239 34.3499ZM74.5002 31.1124C73.7564 30.0624 72.9027 29.0961 71.9564 28.2299H49.6877C47.9464 28.2299 46.5214 28.8786 46.5214 29.6711C46.5214 30.4636 47.9464 31.1124 49.6877 31.1124H74.5002ZM64.1714 24.0374C63.0052 23.7461 61.7939 23.5686 60.5502 23.5161H59.0227C55.6964 23.6549 52.6039 24.6949 49.9814 26.3986H61.7377C63.4789 26.3986 64.9039 25.7499 64.9039 24.9574C64.9039 24.6086 64.6277 24.2874 64.1702 24.0374H64.1714ZM41.7852 42.3711C41.8314 43.3549 41.9552 44.3174 42.1527 45.2536H73.5714C75.3127 45.2536 76.7377 44.6049 76.7377 43.8124C76.7377 43.0199 75.3127 42.3711 73.5714 42.3711H41.7852Z" fill="#4143ED"/>
<path fill-rule="evenodd" clip-rule="evenodd" d="M10.2173 63.0273H109.35V64.6948H10.2173V63.0273Z" fill="#4143ED"/>
<path d="M13.4025 74.81H16.8337L15.1388 70.4175L13.4025 74.81ZM72.5175 84.96V95.6638H71.2363V84.96H72.5175ZM76.2262 95.6638L72.6525 90.3413L76.3875 84.96H77.9313L74.1375 90.305L77.8363 95.6638H76.225H76.2262ZM72.585 90.3413L72.5713 90.3713V90.3113L72.585 90.3413ZM61.8925 87.0088L62.015 95.6638H60.5412V84.96H62.0913L67.7238 93.36L67.6312 84.96H69.0737V95.6638H67.6562L61.89 87.0088H61.8925ZM52.83 91.115H56.15L54.51 86.7225L52.83 91.115ZM56.6662 92.4975H52.3125L51.0887 95.6638H49.5387L53.79 84.96H55.2325L59.4688 95.6638H57.8537L56.6675 92.4975H56.6662ZM43.7137 86.2825V89.5238H44.3488C45.9875 89.5238 46.8075 88.9638 46.8075 87.8438C46.8075 86.8025 46.1087 86.2825 44.7137 86.2825H43.715H43.7137ZM43.7137 90.6538V94.34H45.11C46.675 94.34 47.4575 93.76 47.4575 92.6C47.4575 91.3013 46.675 90.6525 45.11 90.6525H43.7137V90.6538ZM42.2225 95.6638V84.96H44.6338C47.0988 84.96 48.33 85.9313 48.33 87.8738C48.33 88.7563 47.875 89.44 46.965 89.925C48.3187 90.3013 48.995 91.1338 48.995 92.4225C48.995 94.5825 47.6037 95.6638 44.8225 95.6638H42.2212H42.2225ZM47.5537 74.81H51.0438L49.32 70.4175L47.5537 74.81ZM51.5863 76.1925H47.01L45.7238 79.3588H44.095L48.5638 68.655H50.08L54.5325 79.3588H52.835L51.5875 76.1925H51.5863ZM60.4675 78.0063V79.3588H55.1787V68.655H56.6787V78.0063H60.4688H60.4675ZM67.0988 78.0063V79.3588H61.81V68.655H63.31V78.0063H67.0988ZM69.9412 68.655V79.3588H68.4575V68.655H69.9412ZM73.9388 74.81H77.4287L75.705 70.4175L73.9388 74.81ZM77.9713 76.1925H73.395L72.1087 79.3588H70.48L74.9488 68.655H76.465L80.9175 79.3588H79.22L77.9725 76.1925H77.9713ZM82.9525 70.7038L83.0788 79.3588H81.5625V68.655H83.1575L88.9525 77.055L88.8575 68.655H90.3412V79.3588H88.8838L82.9525 70.7038ZM100.764 76.8013H102.659C101.701 78.645 100.021 79.5663 97.6212 79.5663C95.99 79.5663 94.6188 79.0163 93.5088 77.9163C92.3975 76.8163 91.8425 75.4925 91.8425 73.9463C91.8425 72.4 92.4137 71.1588 93.5563 70.0738C94.6988 68.9888 96.0638 68.4463 97.6537 68.4463C98.78 68.4463 99.775 68.6838 100.637 69.16C101.542 69.655 102.216 70.3738 102.659 71.315H100.859C100.09 70.3438 99.0112 69.8588 97.6225 69.8588C96.485 69.8588 95.5013 70.27 94.67 71.0925C93.8387 71.915 93.4225 72.8663 93.4225 73.9475C93.4225 75.0288 93.8225 76.0438 94.6225 76.8763C95.4437 77.7388 96.4437 78.17 97.6225 78.17C99.0125 78.17 100.06 77.7138 100.765 76.8025L100.764 76.8013ZM110 78.0063V79.3588H104.158V68.655H110V69.9338H105.674V73.3525H110V74.6013H105.674V78.0063H110ZM17.3663 76.1925H12.8675L11.6025 79.3588H10L14.3938 68.655H15.8837L20.2612 79.3588H18.5925L17.3663 76.1925ZM20.2625 76.3713H21.66C21.66 76.8963 21.8275 77.345 22.165 77.7163C22.5013 78.0875 22.9387 78.2738 23.4762 78.2738C24.0662 78.2738 24.54 78.085 24.8962 77.7088C25.2537 77.3325 25.4325 76.8613 25.4325 76.2963C25.4325 75.5825 25.0187 75.0375 24.19 74.6613C23.4137 74.3338 22.6375 74.0125 21.8612 73.695C21.0337 73.21 20.6187 72.4813 20.6187 71.51C20.6187 70.6088 20.895 69.8725 21.4487 69.3025C22.0025 68.7325 22.745 68.4475 23.6763 68.4475C24.5463 68.4475 25.2338 68.6925 25.7413 69.1838C26.2488 69.6738 26.5275 70.3413 26.58 71.1838H25.2188C25.1975 70.7625 25.0375 70.415 24.7375 70.14C24.44 69.865 24.0725 69.7263 23.64 69.7263C23.1638 69.7263 22.7788 69.865 22.4788 70.1425C22.1813 70.42 22.0312 70.7888 22.0312 71.245C22.0312 71.8788 22.4688 72.4025 23.3462 72.8088C23.7188 72.9775 24.1412 73.1463 24.6163 73.3138C26.1325 73.8388 26.8913 74.7825 26.8913 76.1438C26.8913 77.1675 26.5912 77.995 25.9913 78.6288C25.3912 79.265 24.5625 79.5825 23.5075 79.5825C22.545 79.5825 21.7638 79.2775 21.1625 78.6688C20.5625 78.0588 20.2625 77.2938 20.2625 76.3713ZM29.7787 68.655V79.3588H28.32V68.655H29.7787ZM33.71 74.81H37.1413L35.4463 70.4175L33.71 74.81ZM37.6737 76.1925H33.1737L31.9088 79.3588H30.3075L34.7013 68.655H36.1912L40.57 79.3588H38.9013L37.675 76.1925H37.6737Z" fill="#4143ED"/>
</g>
<defs>
<clipPath id="clip0_2300_602">
<rect width="100" height="72.1475" fill="white" transform="translate(10 23.5161)"/>
</clipPath>
</defs>
</svg>
