<svg width="120" height="120" viewBox="0 0 120 120" fill="none" xmlns="http://www.w3.org/2000/svg">
<g clip-path="url(#clip0_2300_581)">
<path fill-rule="evenodd" clip-rule="evenodd" d="M6.13517 54.9385L7.54251 56.3252L3.9435 59.8723L7.68757 63.5622L6.12867 65.0556L1 60L6.13517 54.9385ZM15.0485 65.1406L16.3822 66.4559L11.9832 70.8257L7.06726 65.9801L8.60396 64.4656L12.1689 67.9796L15.0485 65.1406ZM17.441 62.7827L18.8185 64.1403L23.0655 60.0411L11.9827 49.1743L7.03424 54.0524L8.44158 55.4391L12.0855 51.8472L20.3103 59.9545L17.441 62.7827ZM27.4991 65.0616L26.1059 63.6748L29.6691 60.1277L25.9619 56.4378L27.5056 54.9444L32.5839 60L27.4991 65.0616ZM18.6729 54.8589L17.3522 53.5446L21.7095 49.1743L26.5768 54.0199L25.0558 55.5344L21.5255 52.0204L18.6729 54.8589ZM16.3043 57.2173L14.9402 55.8597L10.7345 59.9589L21.7095 70.8257L26.6098 65.9476L25.2165 64.5609L21.6078 68.1528L13.4636 60.0455L16.3043 57.2173ZM46.2378 55.6724C45.0708 54.4679 43.6031 53.8656 41.8345 53.8656H36.7681V66.3904H41.8345C43.6034 66.3904 45.0712 65.7878 46.2378 64.5825C47.4168 63.3664 48.0062 61.8815 48.0062 60.1277C48.0062 58.3624 47.4168 56.877 46.2378 55.6724ZM44.8007 63.2055C44.0393 64.0163 43.0506 64.4218 41.8345 64.4218H38.8867V55.8337H41.8345C43.0506 55.8337 44.0393 56.2393 44.8007 57.0505C45.5744 57.8495 45.9613 58.8752 45.9613 60.1277C45.9613 61.3684 45.5744 62.3943 44.8007 63.2055ZM59.095 57.4441H57.1052V58.7145C56.3561 57.7124 55.2813 57.2113 53.8808 57.2113C52.6156 57.2113 51.5349 57.6645 50.6385 58.571C49.7421 59.4775 49.2938 60.5929 49.2934 61.9172C49.2934 63.2293 49.7418 64.3445 50.6385 65.2629C51.5349 66.1694 52.6156 66.6226 53.8808 66.6226C55.2809 66.6226 56.3557 66.1156 57.1052 65.1016V66.3899H59.095V57.4441ZM54.1942 64.7795C53.3588 64.7795 52.6649 64.5111 52.1124 63.9741C51.5596 63.4256 51.2832 62.7398 51.2832 61.9167C51.2832 61.0939 51.5596 60.4139 52.1124 59.8766C52.6645 59.3281 53.3584 59.0538 54.1942 59.0538C55.0299 59.0538 55.7239 59.3281 56.276 59.8766C56.8288 60.4135 57.1052 61.0936 57.1052 61.9167C57.1052 62.7394 56.8288 63.4253 56.276 63.9741C55.7235 64.5111 55.0296 64.7795 54.1942 64.7795ZM69.8341 57.4435H67.6597L65.0989 64.2421L62.5197 57.4435H60.3453L63.9384 66.3899H66.241L69.8341 57.4435ZM75.9208 57.2822C74.5329 57.2822 73.5873 57.8369 73.0839 58.9461V57.4435H71.0942V66.3899H73.0839V61.881C73.0839 60.9622 73.3663 60.306 73.931 59.9123C74.4961 59.5067 75.1594 59.3279 75.9208 59.3759V57.2822ZM86.4374 61.0755C86.1181 60.5747 85.6758 60.181 85.1107 59.8945C85.9829 59.2745 86.419 58.4216 86.419 57.3358C86.419 56.3456 86.0506 55.5227 85.3137 54.867C84.5891 54.1991 83.6985 53.8651 82.6419 53.8651H77.5203V66.3899H83.0473C84.1281 66.3899 85.0433 66.0498 85.7927 65.3695C86.5419 64.6897 86.9165 63.8368 86.9165 62.8109C86.9165 62.1552 86.7568 61.5768 86.4374 61.0755ZM79.6389 55.7975H82.6419C83.1085 55.7975 83.5017 55.9584 83.8214 56.2803C84.1407 56.5906 84.3004 56.9784 84.3004 57.4435C84.3004 57.9087 84.1407 58.3022 83.8214 58.6241C83.5017 58.9344 83.1085 59.0896 82.6419 59.0896H79.6389V55.7975ZM84.2815 63.9563C83.9502 64.2904 83.5388 64.4575 83.0473 64.4575H79.6389V60.95H83.0473C83.5388 60.95 83.9502 61.1232 84.2815 61.4696C84.6257 61.8034 84.7979 62.2148 84.7979 62.7037C84.8016 62.9367 84.7578 63.1679 84.669 63.3833C84.5802 63.5987 84.4483 63.7936 84.2815 63.9563ZM98.0117 57.4435H96.0219V58.7139C95.2728 57.7118 94.1982 57.2108 92.798 57.2108C91.5332 57.2108 90.4523 57.664 89.5552 58.5705C88.6589 59.4773 88.2105 60.5927 88.2101 61.9167C88.2101 63.2288 88.6585 64.344 89.5552 65.2624C90.4523 66.1688 91.5332 66.6221 92.798 66.6221C94.1982 66.6221 95.2728 66.1151 96.0219 65.1011V66.3893H98.0117V57.4435ZM93.1109 64.7795C92.2755 64.7795 91.5816 64.5111 91.0291 63.9741C90.4763 63.4256 90.1999 62.7398 90.1999 61.9167C90.1999 61.0939 90.4763 60.4139 91.0291 59.8766C91.5816 59.3281 92.2755 59.0538 93.1109 59.0538C93.9463 59.0538 94.6404 59.3281 95.1932 59.8766C95.7457 60.4135 96.0219 61.0936 96.0219 61.9167C96.0219 62.7394 95.7457 63.4253 95.1932 63.9741C94.6404 64.5111 93.9463 64.7795 93.1109 64.7795ZM107.738 58.1948C107.087 57.5388 106.233 57.2108 105.177 57.2108C103.875 57.2108 102.923 57.67 102.321 58.5883V57.4435H100.331V66.3899H102.321V61.5941C102.321 60.7237 102.536 60.0796 102.966 59.6617C103.396 59.2323 103.961 59.0176 104.661 59.0176C105.3 59.0176 105.803 59.1966 106.172 59.5545C106.54 59.9125 106.724 60.4255 106.724 61.0934V66.3899H108.714V60.8969C108.714 59.7519 108.388 58.8516 107.738 58.1959M116.623 66.3909H119L114.799 61.8279L118.853 57.4446H116.421L112.846 61.3987V53.8656H110.856V66.3904H112.846V62.2572L116.623 66.3909Z" fill="#4143ED"/>
</g>
<defs>
<clipPath id="clip0_2300_581">
<rect width="118" height="21.6514" fill="white" transform="translate(1 49.1743)"/>
</clipPath>
</defs>
</svg>
