<svg width="120" height="120" viewBox="0 0 120 120" fill="none" xmlns="http://www.w3.org/2000/svg">
<g clip-path="url(#clip0_2300_678)">
<path d="M59.9994 32C44.5357 32 32 44.5357 32 59.9994C32 75.4632 44.5357 87.9989 59.9994 87.9989C75.4632 87.9989 87.9989 75.4632 87.9989 59.9994C87.9989 44.5357 75.4643 32 59.9994 32ZM51.0702 69.6632C51.0702 70.9617 50.0179 72.014 48.7194 72.014C47.4209 72.014 46.3686 70.9617 46.3686 69.6632V53.9565C46.3686 52.6579 47.4209 51.6057 48.7194 51.6057C50.0179 51.6057 51.0702 52.6579 51.0702 53.9565V69.6632ZM51.0702 47.1295C51.0702 45.7287 52.206 44.5918 53.6079 44.5918C55.0098 44.5918 56.1456 45.7276 56.1456 47.1295C56.1456 48.5314 55.0098 49.6672 53.6079 49.6672C52.206 49.6672 51.0702 48.5314 51.0702 47.1295ZM64.7362 72.014C59.1 72.014 54.5315 67.4454 54.5315 61.8093C54.5315 56.1731 59.1 51.6046 64.7362 51.6046C70.3724 51.6046 74.9409 56.1731 74.9409 61.8093C74.9409 67.4454 70.3724 72.014 64.7362 72.014Z" fill="#4143ED"/>
</g>
<defs>
<clipPath id="clip0_2300_678">
<rect width="56" height="56" fill="white" transform="translate(32 32)"/>
</clipPath>
</defs>
</svg>
