<svg width="120" height="120" viewBox="0 0 120 120" fill="none" xmlns="http://www.w3.org/2000/svg">
<g clip-path="url(#clip0_2300_598)">
<path fill-rule="evenodd" clip-rule="evenodd" d="M72.2781 66.0104C71.15 67.9393 69.0952 68.8613 66.913 68.8613C64.7308 68.8613 62.676 67.9393 61.5479 66.0104C60.6905 64.5456 60.2735 62.1368 60.3019 60.6013C60.3318 59.0657 60.3522 57.8605 60.7392 56.487C61.2915 54.5235 62.4007 52.9753 64.3799 52.1949C65.1855 51.8771 66.0508 51.8095 66.9114 51.8095C67.772 51.8095 68.6374 51.8771 69.4429 52.1949C71.4222 52.9753 72.5314 54.5235 73.0836 56.487C73.4707 57.8605 73.4911 59.0657 73.521 60.6013C73.5509 62.1368 73.1324 64.5456 72.2765 66.0104M76.3388 52.626C75.2265 51.048 73.7601 49.8869 71.9807 49.1616C70.3224 48.485 68.6279 48.2773 66.913 48.2773C65.1981 48.2773 63.5036 48.485 61.8437 49.1616C60.0643 49.8869 58.5979 51.0496 57.4856 52.626C55.843 54.9546 55.264 58.054 55.2751 60.3464C55.2861 62.6387 55.5032 63.8895 56.175 65.5887C57.0466 67.7882 58.4611 69.5488 60.4954 70.7917C62.4369 71.978 64.6521 72.4028 66.913 72.4028C69.1739 72.4028 71.3891 71.978 73.3306 70.7917C75.365 69.5488 76.7794 67.7867 77.651 65.5887C78.3244 63.8895 78.5399 62.6387 78.551 60.3464C78.562 58.054 77.983 54.9546 76.3404 52.626H76.3388ZM117.426 62.0896C116.454 61.056 115.258 60.4628 113.883 60.1576C114.023 60.1088 114.165 60.0616 114.303 60.0097C114.454 59.9531 114.609 59.9043 114.753 59.8303C116.567 58.9036 117.62 57.4341 117.84 55.403C118.061 53.3687 117.316 51.7245 115.689 50.5068C114.409 49.5486 112.908 49.2465 111.338 49.2449C107.56 49.2402 103.784 49.2434 100.007 49.2434H99.7202C100.515 49.6194 101.002 50.2361 101.22 51.037C101.383 51.6459 101.518 52.2799 101.534 52.9061C101.577 54.6541 101.553 56.4052 101.553 58.1547C101.553 61.6884 101.58 65.2221 101.531 68.7558C101.512 70.1294 101.355 71.5171 99.975 72.4013H100.305C104.176 72.4013 108.046 72.4044 111.915 72.3997C113.605 72.3965 115.186 72.0189 116.583 71.0089C119.421 68.9557 119.829 64.6463 117.425 62.0896H117.426ZM106.504 52.4121C106.78 52.4121 107.042 52.4105 107.304 52.4121C108.125 52.4199 108.948 52.4121 109.767 52.442C111.256 52.497 112.341 53.3419 112.618 54.7909C112.864 56.0701 112.639 57.2815 111.61 58.2145C111.089 58.6865 110.446 58.8753 109.764 58.8911C108.69 58.9162 107.614 58.8973 106.503 58.8973V52.4105L106.504 52.4121ZM113.09 67.9944C112.54 68.7134 111.766 69.0768 110.908 69.1161C109.456 69.1822 107.997 69.135 106.503 69.135V62.0409H106.701C107.961 62.0613 109.228 62.022 110.482 62.1195C112.249 62.2596 113.54 63.3373 113.742 65.2048C113.85 66.2165 113.728 67.1621 113.089 67.9944H113.09ZM94.3189 63.4411C93.828 62.6419 93.0964 62.3681 92.3066 62.3366C90.8466 62.2784 89.3818 62.3036 87.9202 62.2973H87.7896V62.6686C87.7896 64.6306 87.7644 66.5925 87.8022 68.5529C87.8163 69.3002 87.9249 70.0539 88.0854 70.7839C88.238 71.4761 88.6203 72.0583 89.3834 72.4028H81.0919C82.2121 71.9025 82.5331 70.9365 82.6951 69.8965C82.7785 69.36 82.799 68.8109 82.8005 68.2665C82.8084 63.2744 82.8068 58.2837 82.8005 53.2916C82.8005 52.829 82.7769 52.3617 82.7093 51.9055C82.5409 50.738 82.0611 49.7657 80.8213 49.2434H96.4398V55.2504C96.3312 55.0175 96.2588 54.8602 96.1864 54.7044C95.5319 53.2821 94.3818 52.5269 92.8588 52.4498C91.2147 52.3664 89.5643 52.4136 87.9154 52.4058H87.8053V59.1145H88.0806C89.2528 59.116 90.4265 59.1286 91.5986 59.1097C92.0124 59.1035 92.4309 59.0468 92.8384 58.9729C93.4504 58.8612 93.9602 58.5669 94.3173 57.9659V63.4411H94.3189Z" fill="#4143ED"/>
<path d="M48.0945 59.388C47.1882 58.6422 46.5322 57.6101 45.8997 56.6362C45.2483 55.6324 44.6646 54.712 43.826 53.842C43.5271 53.532 43.2282 53.2425 42.9151 52.9704C42.945 52.5566 42.9512 52.1412 42.9434 51.7101C42.9214 50.5018 42.6838 49.4382 42.4336 48.2677C42.1913 47.1317 41.927 45.9376 42.0403 44.7701L42.185 43.2802L40.6951 43.4249C39.5277 43.5382 38.3335 43.2723 37.1976 43.0316C36.027 42.783 34.9634 42.5439 33.7551 42.5218C33.324 42.514 32.9087 42.5218 32.4949 42.5502C32.2227 42.2371 31.9332 41.9381 31.6233 41.6392C30.7532 40.8006 29.8328 40.2169 28.829 39.5656C27.8551 38.9331 26.823 38.277 26.0773 37.3708L25.1254 36.2144L24.1751 37.3708C23.4293 38.277 22.3988 38.9331 21.4233 39.5656C20.4195 40.2169 19.4991 40.8006 18.6291 41.6392C18.3191 41.9381 18.0297 42.2371 17.7575 42.5502C17.3437 42.5203 16.9283 42.514 16.4972 42.5218C15.2889 42.5439 14.2253 42.783 13.0548 43.0316C11.9188 43.2739 10.7262 43.5398 9.55725 43.4249L8.0673 43.2802L8.21205 44.7701C8.32533 45.9376 8.06101 47.1301 7.81872 48.2677C7.57013 49.4382 7.33098 50.5018 7.30896 51.7101C7.30109 52.1412 7.30896 52.5566 7.33728 52.9704C7.02418 53.2425 6.72525 53.532 6.42632 53.842C5.58773 54.712 5.00402 55.634 4.35266 56.6362C3.72018 57.6101 3.0641 58.6422 2.15786 59.388L1.00146 60.3383L2.15786 61.2901C3.0641 62.0359 3.72018 63.0664 4.35266 64.0403C5.00402 65.0441 5.58773 65.9661 6.42632 66.8361C6.72525 67.1461 7.02418 67.4356 7.33728 67.7078C7.30738 68.1216 7.30109 68.5385 7.30896 68.968C7.33098 70.1763 7.56856 71.2415 7.81872 72.4105C8.06101 73.5464 8.32533 74.739 8.21205 75.908L8.0673 77.3979L9.55725 77.2532C10.7247 77.1399 11.9188 77.4058 13.0548 77.6465C14.2253 77.8951 15.2889 78.1343 16.4972 78.1563C16.9283 78.1641 17.3437 78.1563 17.7575 78.128C18.0297 78.4411 18.3191 78.74 18.6291 79.0389C19.4991 79.8775 20.4195 80.4612 21.4233 81.1126C22.3972 81.7451 23.4293 82.4011 24.1735 83.3074L25.1254 84.4638L26.0757 83.3074C26.8214 82.4011 27.8535 81.7451 28.8274 81.1126C29.8312 80.4612 30.7516 79.8775 31.6217 79.0389C31.9316 78.74 32.2211 78.4411 32.4933 78.128C32.9071 78.1579 33.324 78.1641 33.7535 78.1563C34.9619 78.1343 36.0254 77.8967 37.196 77.6465C38.3319 77.4042 39.5245 77.1383 40.6935 77.2532L42.1835 77.3979L42.0387 75.908C41.9254 74.7406 42.1913 73.5464 42.432 72.4105C42.6806 71.2399 42.9198 70.1763 42.9418 68.968C42.9497 68.5369 42.9418 68.1216 42.9135 67.7078C43.2266 67.4356 43.5255 67.1461 43.8244 66.8361C44.663 65.9661 45.2467 65.0457 45.8981 64.0403C46.5306 63.0664 47.1867 62.0343 48.0929 61.2901L49.2493 60.3399L48.0929 59.388H48.0945ZM34.6094 60.7096C37.1598 61.2665 39.5985 64.1489 40.2656 66.6112C38.0535 67.8793 34.2901 68.1955 32.0937 66.7858L30.6352 65.8481L31.5713 67.3066C32.9826 69.5029 32.6664 73.2664 31.3967 75.4785C28.936 74.8114 26.0505 72.3743 25.4951 69.8239L25.1254 68.1294L24.7557 69.8239C24.2003 72.3743 21.3163 74.8129 18.8541 75.48C17.5844 73.2679 17.2697 69.5045 18.6794 67.3081L19.6156 65.8497L18.1555 66.7874C15.9591 68.1971 12.1957 67.8824 9.98362 66.6127C10.6507 64.152 13.0878 61.2681 15.6398 60.7112L17.3342 60.3414L15.6398 59.9717C13.0894 59.4163 10.6507 56.5308 9.9852 54.0701C12.1973 52.8004 15.9607 52.4858 18.1571 53.8955L19.6156 54.8316L18.6794 53.3731C17.2697 51.1768 17.5844 47.4133 18.8541 45.2012C21.3163 45.8683 24.2003 48.3054 24.7557 50.8574L25.1254 52.5518L25.4951 50.8574C26.0505 48.307 28.936 45.8683 31.3967 45.2028C32.6648 47.4149 32.981 51.1783 31.5698 53.3747L30.6336 54.8332L32.0921 53.8971C34.2885 52.4858 38.0519 52.802 40.264 54.0701C39.5969 56.5308 37.1598 59.4163 34.6079 59.9717L32.9134 60.3414L34.6079 60.7112L34.6094 60.7096ZM39.5591 45.9045C39.6032 46.8705 39.7857 47.813 39.9729 48.7633C40.1586 49.7025 40.3977 50.5034 40.4827 51.4175C40.4198 51.3876 40.3584 51.3577 40.2939 51.3294C38.7552 50.6292 36.5509 50.2831 34.8045 50.6591C35.1821 48.9127 34.8344 46.7085 34.1343 45.1698C34.1044 45.1053 34.0745 45.0439 34.0462 44.981C34.9603 45.0659 35.7627 45.3066 36.7004 45.4907C37.6507 45.678 38.5931 45.8589 39.5591 45.9045ZM22.811 41.6549C23.615 41.1153 24.4095 40.5772 25.1254 39.9258C25.8397 40.5772 26.6358 41.1153 27.4382 41.6549C28.2343 42.1883 28.9722 42.5832 29.6786 43.1701C29.6125 43.1937 29.5465 43.2173 29.4788 43.2424C27.896 43.8356 26.0914 45.1477 25.1238 46.6503C24.1546 45.1477 22.3516 43.8356 20.7688 43.2424C20.7012 43.2173 20.6367 43.1952 20.569 43.1701C21.277 42.5832 22.0149 42.1883 22.8094 41.6549H22.811ZM10.2763 48.7633C10.4635 47.813 10.6444 46.8705 10.6901 45.9045C11.6561 45.8589 12.5985 45.678 13.5488 45.4907C14.4881 45.3051 15.2889 45.0659 16.203 44.981C16.1731 45.0439 16.1432 45.1053 16.1149 45.1698C15.4148 46.7085 15.0686 48.9127 15.4447 50.6591C13.6967 50.2815 11.494 50.6292 9.9553 51.3294C9.8908 51.3593 9.82944 51.3892 9.76651 51.4175C9.85147 50.5034 10.0922 49.701 10.2763 48.7633ZM6.44048 62.6527C5.90083 61.8487 5.36274 61.0541 4.71138 60.3399C5.36274 59.6256 5.90083 58.8295 6.44048 58.0255C6.97384 57.2309 7.36874 56.4915 7.9556 55.785C7.9792 55.8511 8.0028 55.9172 8.02797 55.9849C8.62112 57.5676 9.93328 59.3722 11.4358 60.3399C9.93328 61.309 8.62112 63.1121 8.02797 64.6948C8.0028 64.7625 7.98077 64.827 7.9556 64.8947C7.36874 64.1867 6.97384 63.4488 6.44048 62.6542V62.6527ZM10.6901 74.7736C10.6444 73.8076 10.4635 72.8652 10.2763 71.9149C10.0906 70.9756 9.85147 70.1748 9.76651 69.2607C9.82944 69.2905 9.8908 69.3204 9.9553 69.3488C11.494 70.0489 13.6983 70.395 15.4447 70.019C15.0671 71.7654 15.4148 73.9696 16.1149 75.5084C16.1448 75.5729 16.1747 75.6342 16.2046 75.6972C15.2905 75.6122 14.4881 75.3715 13.5504 75.1874C12.6001 75.0002 11.6577 74.8192 10.6916 74.7736H10.6901ZM27.4382 79.0248C26.6342 79.5644 25.8381 80.1025 25.1238 80.7538C24.4095 80.1025 23.6134 79.5644 22.8094 79.0248C22.0149 78.4914 21.2754 78.0965 20.569 77.5096C20.6351 77.486 20.7012 77.4624 20.7673 77.4373C22.35 76.8441 24.1546 75.5304 25.1222 74.0294C26.0914 75.532 27.8945 76.8441 29.4772 77.4373C29.5449 77.4624 29.6094 77.4845 29.677 77.5096C28.9706 78.0965 28.2311 78.4914 27.4366 79.0248H27.4382ZM39.9729 71.9164C39.7857 72.8667 39.6048 73.8092 39.5591 74.7752C38.5931 74.8192 37.6507 75.0017 36.7004 75.189C35.7611 75.3746 34.9603 75.6138 34.0462 75.6987C34.0761 75.6358 34.106 75.5744 34.1343 75.5099C34.8344 73.9712 35.1806 71.767 34.8045 70.0206C36.5509 70.3982 38.7552 70.0505 40.2939 69.3503C40.3584 69.3204 40.4198 69.2905 40.4827 69.2622C40.3977 70.1763 40.157 70.9787 39.9729 71.9164ZM43.8103 62.6542C43.2769 63.4488 42.882 64.1882 42.2952 64.8947C42.2716 64.8286 42.248 64.7625 42.2228 64.6948C41.6297 63.1121 40.3159 61.3075 38.815 60.3399C40.3175 59.3707 41.6297 57.5676 42.2228 55.9849C42.248 55.9172 42.27 55.8527 42.2952 55.785C42.882 56.493 43.2769 57.2309 43.8103 58.0255C44.3499 58.8295 44.888 59.6256 45.5394 60.3399C44.888 61.0541 44.3499 61.8503 43.8103 62.6542Z" fill="#4143ED"/>
</g>
<defs>
<clipPath id="clip0_2300_598">
<rect width="118" height="48.251" fill="white" transform="translate(1 36.2144)"/>
</clipPath>
</defs>
</svg>
