<svg width="120" height="120" viewBox="0 0 120 120" fill="none" xmlns="http://www.w3.org/2000/svg">
<g clip-path="url(#clip0_2300_614)">
<g clip-path="url(#clip1_2300_614)">
<path d="M9.94488 68.9543H15.3731L16.356 63.5563C16.356 63.5563 16.8233 63.5362 17.0811 63.5624C17.3751 63.5583 17.4295 63.6953 17.5423 63.9168C18.1566 65.1032 18.2312 67.6008 18.7911 68.9563H25.0249L24.9242 68.1587L31.7261 68.7629L32.2639 67.3611H24.7228L23.8185 65.1717L32.9326 65.9733L33.4703 64.5715H23.617L23.2424 62.8111C24.9081 62.3539 25.1216 60.7828 26.165 59.6186L35.3475 60.3961L35.6819 58.9922H26.2314C27.162 56.0475 27.3533 52.986 25.1196 51.5801C24.4852 51.1813 23.7399 51 22.9906 51H12.9319L9.94287 68.9543H9.94488ZM17.7981 55.6145L19.9029 55.7796C20.3138 55.8118 20.63 56.1502 20.6441 56.5631C20.7146 58.5954 19.5706 59.524 17.2744 58.7968L17.7981 55.6165V55.6145Z" fill="#4143ED"/>
<path d="M65.8458 62.1808V51.0001H59.624L60.8184 68.9544H68.861L70.5972 65.196L80.4082 65.9775C80.5391 65.9553 80.8815 64.6965 80.4243 64.5696H70.6717L72.8732 59.6812L81.2038 60.5694C81.663 60.3841 81.9168 58.9903 81.4294 58.9903H73.0847L74.0213 57.0285L81.8121 57.808L82.1323 56.3981H74.5913C74.0132 56.3981 74.7061 54.3477 75.2318 54.2349L82.0256 55.0144C82.7446 54.9257 82.515 54.1503 82.5331 53.6085H75.2942L76.2248 51.6426L82.8192 52.2247L83.0951 50.9961H70.4945L65.8438 62.1767L65.8458 62.1808Z" fill="#4143ED"/>
<path d="M32.6665 68.9543H38.4975L39.5026 66.1647H44.1271L44.3285 68.9543H50.1595L49.9581 65.1676C50.2542 64.8736 57.199 65.923 58.2948 65.9733C59.8034 66.0438 60.2183 66.1989 59.4871 64.5574L49.8453 64.3821L48.9672 51H40.0343L32.6665 68.9543ZM43.7263 56.6014L43.9579 61.4132L41.5147 61.381L43.3879 56.6014H43.7263Z" fill="#4143ED"/>
<path d="M83.8304 51.0099L80.7266 68.9542H92.9928L93.6958 68.1505L99.2871 68.7185C99.7504 68.5775 100.087 67.8222 100.03 67.361H93.3957L93.8247 65.3951L100.729 65.9651C101.346 65.8483 101.676 65.1534 101.64 64.5733L87.1638 64.1725L87.5647 62.1805H93.1943L93.7965 57.7977H88.3683L88.6402 55.6506L94.4692 55.574L95.1198 54.2004L103.323 54.994L103.612 54.5569L103.45 53.6143H95.4078L96.139 51.6505L102.848 52.2205L102.556 51.0039H84.7911L83.8324 51.014L83.8304 51.0099Z" fill="#4143ED"/>
<path d="M113.654 51L110.99 55.6064L109.924 51H103.489L105.457 59.671C104.156 62.5714 102.186 65.1374 100.703 67.9291C100.516 68.2815 100.343 68.5152 100.433 68.9543H106.265L109.278 63.7738L110.486 68.9543H116.519C116.273 65.7638 115.052 62.6963 114.545 59.53L119.89 51H113.654Z" fill="#4143ED"/>
<path d="M0.89502 59.5884L10.4341 60.5935C10.5872 60.5814 11.0041 59.1594 10.4482 58.9902H0.897034V59.5864L0.89502 59.5884Z" fill="#4143ED"/>
<path d="M94.7998 59.5884L104.16 60.4002L104.419 60.3518L104.863 59.3065C104.867 59.2158 104.415 58.9983 104.353 58.9902H94.8018V59.5864L94.7998 59.5884Z" fill="#4143ED"/>
<path d="M49.7568 59.5884L59.306 60.5894C59.4973 60.5814 59.5336 59.1231 59.1086 58.9922H49.7588V59.5884H49.7568Z" fill="#4143ED"/>
<path d="M-0.109863 65.1675C1.37659 64.9097 8.79275 66.4102 9.55612 65.8785L9.74344 64.5713H-0.109863V65.1675Z" fill="#4143ED"/>
<path d="M81.1277 61.7818H72.0801V62.378L80.6342 63.2944C81.2707 63.0487 81.1378 62.3377 81.1277 61.7798V61.7818Z" fill="#4143ED"/>
<path d="M10.0454 61.7818H1.29785V62.378L9.85604 63.3186C10.1803 63.2602 10.5932 61.9429 10.0454 61.7798V61.7818Z" fill="#4143ED"/>
<path d="M9.04074 67.3614H0.0917969V67.9576L9.11728 68.731C9.18979 68.3665 9.55435 67.5104 9.04074 67.3594V67.3614Z" fill="#4143ED"/>
<path d="M71.0728 67.3613V67.9575C74.0859 68.2012 77.0971 68.6987 80.1224 68.7571V67.3613H71.0728Z" fill="#4143ED"/>
<path d="M59.3103 61.7817H50.7642V62.3779L59.3183 63.3246C59.7655 63.246 59.7332 61.9127 59.3103 61.7817Z" fill="#4143ED"/>
<path d="M25.629 61.7817L25.627 62.3779L34.2436 63.1433L34.6484 62.243L34.3765 61.7817H25.629Z" fill="#4143ED"/>
<path d="M50.9653 67.3614V67.9576C53.9846 68.1409 56.9857 68.731 60.013 68.7532L59.8136 67.3594H50.9653V67.3614Z" fill="#4143ED"/>
<path d="M94.3989 62.3779L101.942 63.1957C102.796 63.2803 103.269 62.5592 103.247 61.7817H94.3989V62.3779Z" fill="#4143ED"/>
<path d="M3.10693 51.4189L11.4557 52.2347L12.07 52.0313L12.1445 51H3.10895L3.10693 51.4189Z" fill="#4143ED"/>
<path d="M11.5764 54.8913L11.7557 53.6123H2.70605V54.2085L11.2542 55.0262L11.5764 54.8913Z" fill="#4143ED"/>
<path d="M49.9585 51.4189C52.9254 51.4874 55.86 52.0373 58.8087 52.2186V51H49.9605V51.4189H49.9585Z" fill="#4143ED"/>
<path d="M50.1616 53.6123V54.2085L58.7057 55.0142C59.31 55.0766 58.8991 53.9849 59.0099 53.6123H50.1616Z" fill="#4143ED"/>
<path d="M2.30322 56.998L10.6499 57.8017L11.1212 57.4673L11.1515 56.4019H2.30524L2.30322 56.998Z" fill="#4143ED"/>
<path d="M38.0968 53.6123H29.2485V54.2085L37.5691 55.0222L38.0968 53.6123Z" fill="#4143ED"/>
<path d="M28.042 56.998L36.2054 57.7876C36.6888 57.9024 36.9929 56.4965 36.8902 56.4019H28.042V56.998Z" fill="#4143ED"/>
<path d="M50.5626 56.4019V56.998C53.3663 56.9316 56.1358 57.6124 58.9073 57.7997C59.5175 57.84 59.0885 56.7221 59.2074 56.4019H50.5605H50.5626Z" fill="#4143ED"/>
<path d="M95.6055 56.4019V56.998C98.4092 56.9356 101.177 57.6083 103.95 57.7997C104.643 57.848 103.966 56.7765 104.051 56.4019H95.6055Z" fill="#4143ED"/>
</g>
</g>
<defs>
<clipPath id="clip0_2300_614">
<rect width="120" height="120" fill="white"/>
</clipPath>
<clipPath id="clip1_2300_614">
<rect width="120" height="17.9543" fill="white" transform="translate(-0.109863 51)"/>
</clipPath>
</defs>
</svg>
