<svg width="40" height="40" viewBox="0 0 40 40" fill="none" xmlns="http://www.w3.org/2000/svg">
<rect width="40" height="40" rx="12" fill="#4143ED"/>
<g clip-path="url(#clip0_2299_258)">
<path d="M32 11V13C32 14.657 30.657 16 29 16H28V17C28 18.657 26.657 20 25 20H21V23.395L22.295 22.101C22.686 21.71 23.318 21.71 23.709 22.101C24.1 22.492 24.1 23.124 23.709 23.515L21.234 25.991C20.894 26.331 20.448 26.501 20.002 26.501C19.556 26.501 19.11 26.331 18.771 25.991L16.295 23.515C15.904 23.124 15.904 22.492 16.295 22.101C16.686 21.71 17.318 21.71 17.709 22.101L19.001 23.393V19.999H15C13.343 19.999 12 18.656 12 16.999V15.999H11C9.343 15.999 8 14.656 8 12.999V11C8 9.343 9.343 8 11 8H15C16.657 8 18 9.343 18 11V13C18 14.657 16.657 16 15 16H14V17C14 17.552 14.448 18 15 18H25C25.552 18 26 17.552 26 17V16H25C23.343 16 22 14.657 22 13V11C22 9.343 23.343 8 25 8H29C30.657 8 32 9.343 32 11ZM29 23H25.982C25.937 23.703 25.659 24.394 25.123 24.93L22.743 27.311C22.183 27.871 21.481 28.298 20.701 28.438C19.447 28.663 18.225 28.275 17.356 27.405L14.88 24.929C14.344 24.393 14.066 23.702 14.021 22.999H11C9.343 22.999 8 24.342 8 25.999V28.999C8 30.656 9.343 31.999 11 31.999H29C30.657 31.999 32 30.656 32 28.999V25.999C32 24.342 30.657 22.999 29 22.999V23Z" fill="white"/>
</g>
<defs>
<clipPath id="clip0_2299_258">
<rect width="24" height="24" fill="white" transform="translate(8 8)"/>
</clipPath>
</defs>
</svg>
