<svg width="40" height="40" viewBox="0 0 40 40" fill="none" xmlns="http://www.w3.org/2000/svg"><rect width="40" height="40" rx="12" fill="#4143ED"/><g clip-path="url(#clip0_2299_276)"><path d="M20 15V8.46C20.913 8.806 21.753 9.339 22.465 10.05L25.949 13.536C26.661 14.247 27.194 15.087 27.54 16H21C20.448 16 20 15.551 20 15ZM27.5 26C30.544 26 31.779 25.189 32 24.921V22.5C32 21.617 30.15 21 27.5 21C24.85 21 23 21.617 23 22.5V24.921C23.221 25.189 24.456 26 27.5 26ZM27.5 32C30.359 32 32 31.21 32 29.833V27.223C30.921 27.689 29.43 28 27.5 28C25.57 28 24.079 27.689 23 27.223V29.833C23 31.21 24.641 32 27.5 32ZM21 29.833V22.5C21 21.448 21.634 19 27.5 19C27.675 19 27.83 19.009 27.996 19.013C27.991 18.612 27.984 18.102 27.977 18H21.001C19.347 18 18.001 16.654 18.001 15V8.024C17.84 8.013 17.679 8 17.516 8H13C10.243 8 8 10.243 8 13V27C8 29.757 10.243 32 13 32H21.751C21.1 31.158 21 30.273 21 29.833ZM14 27C14 27.552 13.553 28 13 28C12.447 28 12 27.552 12 27V24C12 23.448 12.447 23 13 23C13.553 23 14 23.448 14 24V27ZM18 27C18 27.552 17.553 28 17 28C16.447 28 16 27.552 16 27V20C16 19.448 16.447 19 17 19C17.553 19 18 19.448 18 20V27Z" fill="white"/></g><defs><clipPath id="clip0_2299_276"><rect width="24" height="24" fill="white" transform="translate(8 8)"/></clipPath></defs></svg>