<svg width="40" height="40" viewBox="0 0 40 40" fill="none" xmlns="http://www.w3.org/2000/svg"><rect width="40" height="40" rx="12" fill="#4143ED"/><g clip-path="url(#clip0_2299_264)"><path d="M11.5 29C12.978 29 14.131 28.791 15 28.467V30.769C15 31.269 13.985 32 11.5 32C9.015 32 8 31.269 8 30.769V28.505C8.846 28.808 9.991 29 11.5 29ZM29.5 23.049V22C29.5 20.622 28.378 19.5 27 19.5H21V18H22.048C24.238 18 25.832 16.841 26.107 15.049C26.359 13.416 25.442 11.817 23.923 11.217C23.538 9.27699 21.784 7.88599 19.787 8.00599C17.663 8.11699 16 9.94599 16 12.17C14.634 12.651 13.813 14.015 14.036 15.467C14.257 16.911 15.577 18 17.108 18H19V19.5H13C11.622 19.5 10.5 20.622 10.5 22V23.049C8.746 23.216 8 23.805 8 24.231V26.264C8.216 26.471 9.178 27 11.5 27C13.755 27 14.75 26.454 15 26.225V24.231C15 23.805 14.254 23.216 12.5 23.049V22C12.5 21.724 12.724 21.5 13 21.5H19V23.049C17.246 23.216 16.5 23.805 16.5 24.231V26.264C16.716 26.471 17.678 27 20 27C22.255 27 23.25 26.454 23.5 26.225V24.231C23.5 23.805 22.754 23.216 21 23.049V21.5H27C27.276 21.5 27.5 21.724 27.5 22V23.049C25.746 23.216 25 23.805 25 24.231V26.264C25.216 26.471 26.178 27 28.5 27C30.755 27 31.75 26.454 32 26.225V24.231C32 23.805 31.254 23.216 29.5 23.049ZM25 28.505V30.769C25 31.269 26.015 32 28.5 32C30.985 32 32 31.269 32 30.769V28.467C31.131 28.791 29.978 29 28.5 29C26.991 29 25.846 28.807 25 28.505ZM16.5 28.505V30.769C16.5 31.269 17.515 32 20 32C22.485 32 23.5 31.269 23.5 30.769V28.467C22.631 28.791 21.478 29 20 29C18.491 29 17.346 28.807 16.5 28.505Z" fill="white"/></g><defs><clipPath id="clip0_2299_264"><rect width="24" height="24" fill="white" transform="translate(8 8)"/></clipPath></defs></svg>