<svg width="40" height="40" viewBox="0 0 40 40" fill="none" xmlns="http://www.w3.org/2000/svg"><rect width="40" height="40" rx="12" fill="#4143ED"/><g clip-path="url(#clip0_2299_270)"><path d="M21 17H19C17.897 17 17 17.897 17 19V21C17 22.103 17.897 23 19 23H21C22.103 23 23 22.103 23 21V19C23 17.897 22.103 17 21 17ZM21 9H19C17.897 9 17 9.897 17 11V13C17 14.103 17.897 15 19 15H21C22.103 15 23 14.103 23 13V11C23 9.897 22.103 9 21 9ZM21 25H19C17.897 25 17 25.897 17 27V29C17 30.103 17.897 31 19 31H21C22.103 31 23 30.103 23 29V27C23 25.897 22.103 25 21 25ZM31.866 18.387C31.68 18.708 31.345 18.887 30.999 18.887C30.829 18.887 30.657 18.844 30.5 18.753L29.74 18.314C29.034 19.109 28.08 19.679 27 19.899V21C27 21.553 26.553 22 26 22C25.447 22 25 21.553 25 21V17.5C25 16.948 25.447 16.5 26 16.5C26.827 16.5 27.5 15.827 27.5 15C27.5 14.173 26.827 13.5 26 13.5C25.447 13.5 25 13.052 25 12.5V9C25 8.448 25.447 8 26 8C26.553 8 27 8.448 27 9V10.101C28.08 10.321 29.035 10.891 29.74 11.686L30.5 11.247C30.977 10.971 31.589 11.134 31.866 11.613C32.142 12.092 31.978 12.703 31.5 12.979L30.743 13.416C30.91 13.914 31 14.446 31 14.999C31 15.552 30.909 16.085 30.743 16.582L31.5 17.019C31.979 17.295 32.143 17.907 31.866 18.385V18.387ZM15.414 26.586C16.194 27.365 16.194 28.635 15.414 29.414L13.621 31.207C13.426 31.402 13.17 31.5 12.914 31.5C12.658 31.5 12.402 31.402 12.207 31.207C11.816 30.816 11.816 30.184 12.207 29.793L13 29H11.5C9.57 29 8 27.43 8 25.5V22.5C8 20.57 9.57 19 11.5 19H14C14.552 19 15 19.448 15 20C15 20.552 14.552 21 14 21H11.5C10.673 21 10 21.673 10 22.5V25.5C10 26.327 10.673 27 11.5 27H13L12.207 26.207C11.816 25.816 11.816 25.184 12.207 24.793C12.598 24.402 13.23 24.402 13.621 24.793L15.414 26.586Z" fill="white"/></g><defs><clipPath id="clip0_2299_270"><rect width="24" height="24" fill="white" transform="translate(8 8)"/></clipPath></defs></svg>