<svg width="40" height="40" viewBox="0 0 40 40" fill="none" xmlns="http://www.w3.org/2000/svg"><rect width="40" height="40" rx="12" fill="#4143ED"/><path d="M32 16V14C32 11.243 29.757 9 27 9H13C10.243 9 8 11.243 8 14V16H32ZM16.5 11C17.328 11 18 11.672 18 12.5C18 13.328 17.328 14 16.5 14C15.672 14 15 13.328 15 12.5C15 11.672 15.672 11 16.5 11ZM12.5 11C13.328 11 14 11.672 14 12.5C14 13.328 13.328 14 12.5 14C11.672 14 11 13.328 11 12.5C11 11.672 11.672 11 12.5 11ZM8 18V26C8 28.757 10.243 31 13 31H27C29.757 31 32 28.757 32 26V18H8ZM20 25C20 26.654 18.654 28 17 28C15.346 28 14 26.654 14 25V22C14 21.447 14.448 21 15 21C15.552 21 16 21.447 16 22V25C16 25.552 16.449 26 17 26C17.551 26 18 25.552 18 25V22C18 21.447 18.448 21 19 21C19.552 21 20 21.447 20 22V25ZM25.857 26.485C26.141 26.959 25.988 27.573 25.514 27.857C25.353 27.954 25.176 28 25 28C24.66 28 24.329 27.827 24.142 27.515L23.499 26.444L22.856 27.515C22.668 27.827 22.337 28 21.998 28C21.823 28 21.645 27.954 21.484 27.857C21.01 27.573 20.857 26.959 21.141 26.485L22.332 24.5L21.141 22.515C20.857 22.041 21.01 21.427 21.484 21.143C21.958 20.858 22.572 21.012 22.856 21.486L23.499 22.557L24.142 21.486C24.426 21.012 25.04 20.858 25.514 21.143C25.988 21.427 26.141 22.041 25.857 22.515L24.666 24.5L25.857 26.485Z" fill="white"/></svg>