<svg width="40" height="40" viewBox="0 0 40 40" fill="none" xmlns="http://www.w3.org/2000/svg"><rect width="40" height="40" rx="12" fill="#4143ED"/><g clip-path="url(#clip0_2299_288)"><path d="M29.0002 13V11.723C28.4052 11.377 28.0002 10.739 28.0002 10C28.0002 8.895 28.8952 8 30.0002 8C31.1052 8 32.0002 8.895 32.0002 10C32.0002 10.738 31.5952 11.376 31.0002 11.723V13C31.0002 14.654 29.6542 16 28.0002 16H23.0002C22.4472 16 22.0002 15.552 22.0002 15C22.0002 14.448 22.4472 14 23.0002 14H28.0002C28.5522 14 29.0002 13.551 29.0002 13ZM31.0002 28.277V27C31.0002 25.346 29.6542 24 28.0002 24H23.0002C22.4472 24 22.0002 24.448 22.0002 25C22.0002 25.552 22.4472 26 23.0002 26H28.0002C28.5522 26 29.0002 26.449 29.0002 27V28.277C28.4052 28.623 28.0002 29.261 28.0002 30C28.0002 31.105 28.8952 32 30.0002 32C31.1052 32 32.0002 31.105 32.0002 30C32.0002 29.262 31.5952 28.624 31.0002 28.277ZM30.0002 18C29.2622 18 28.6242 18.405 28.2772 19H23.0002C22.4472 19 22.0002 19.448 22.0002 20C22.0002 20.552 22.4472 21 23.0002 21H28.2772C28.6232 21.595 29.2612 22 30.0002 22C31.1052 22 32.0002 21.105 32.0002 20C32.0002 18.895 31.1052 18 30.0002 18ZM20.0002 25V24C17.7942 24 16.0002 22.206 16.0002 20C16.0002 17.794 17.7942 16 20.0002 16V15C20.0002 13.343 21.3432 12 23.0002 12V11C23.0002 9.346 21.6542 8 20.0002 8C18.3462 8 17.0002 9.346 17.0002 11V11.522C15.9532 11.892 14.9842 12.451 14.1432 13.171L13.6932 12.913C13.0002 12.513 12.1902 12.408 11.4162 12.617C10.6432 12.825 9.9972 13.323 9.5972 14.018C8.7722 15.452 9.2682 17.289 10.7022 18.115L11.1532 18.374C11.0512 18.918 11.0002 19.462 11.0002 19.999C11.0002 20.536 11.0512 21.081 11.1532 21.624L10.7022 21.884C9.2682 22.709 8.7722 24.547 9.5972 25.98C9.9962 26.675 10.6422 27.172 11.4162 27.381C12.1912 27.591 12.9992 27.485 13.6932 27.086L14.1432 26.827C14.9842 27.547 15.9532 28.107 17.0002 28.476V28.998C17.0002 30.652 18.3462 31.998 20.0002 31.998C21.6542 31.998 23.0002 30.652 23.0002 28.998V27.998C21.3432 27.998 20.0002 26.655 20.0002 24.998V25ZM20.0002 18C18.8972 18 18.0002 18.897 18.0002 20C18.0002 21.103 18.8972 22 20.0002 22C20.2382 22 20.4632 21.951 20.6752 21.875C20.2592 21.36 20.0002 20.714 20.0002 20C20.0002 19.286 20.2592 18.64 20.6752 18.125C20.4632 18.048 20.2382 18 20.0002 18Z" fill="white"/></g><defs><clipPath id="clip0_2299_288"><rect width="24" height="24" fill="white" transform="translate(8 8)"/></clipPath></defs></svg>