<svg width="40" height="40" viewBox="0 0 40 40" fill="none" xmlns="http://www.w3.org/2000/svg"><rect width="40" height="40" rx="12" fill="#4143ED"/><path d="M32 16V14C32 11.243 29.757 9 27 9H13C10.243 9 8 11.243 8 14V16H32ZM16.5 11C17.328 11 18 11.672 18 12.5C18 13.328 17.328 14 16.5 14C15.672 14 15 13.328 15 12.5C15 11.672 15.672 11 16.5 11ZM12.5 11C13.328 11 14 11.672 14 12.5C14 13.328 13.328 14 12.5 14C11.672 14 11 13.328 11 12.5C11 11.672 11.672 11 12.5 11ZM8 18V26C8 28.757 10.243 31 13 31H27C29.757 31 32 28.757 32 26V18H8ZM16.026 24.722L18.188 26.776C18.588 27.156 18.605 27.789 18.224 28.189C17.844 28.59 17.21 28.606 16.811 28.225L14.63 26.154C13.739 25.264 13.739 23.846 14.611 22.974L16.792 20.793C17.183 20.402 17.815 20.402 18.206 20.793C18.597 21.184 18.597 21.816 18.206 22.207L16.025 24.388C15.933 24.48 15.933 24.63 16.025 24.722H16.026ZM25.387 26.136L23.217 28.24C22.821 28.624 22.188 28.615 21.803 28.219C21.418 27.823 21.428 27.189 21.824 26.805L23.983 24.712C24.064 24.631 24.064 24.481 23.972 24.389L21.791 22.208C21.4 21.817 21.4 21.185 21.791 20.794C22.182 20.403 22.814 20.403 23.205 20.794L25.386 22.975C26.258 23.847 26.258 25.265 25.386 26.137L25.387 26.136Z" fill="white"/></svg>