<svg width="40" height="40" viewBox="0 0 40 40" fill="none" xmlns="http://www.w3.org/2000/svg"><rect width="40" height="40" rx="12" fill="#4143ED"/><g clip-path="url(#clip0_2299_294)"><path d="M28.057 24.8L28.157 24.9C28.384 25.129 28.6653 25.2968 28.9745 25.3879C29.2838 25.479 29.6111 25.4904 29.926 25.421C30.2358 25.356 30.5243 25.2141 30.7649 25.0084C31.0055 24.8028 31.1906 24.5399 31.303 24.244C31.8551 22.7943 32.1191 21.2508 32.08 19.7C31.9675 16.654 30.7146 13.7615 28.5698 11.5957C26.425 9.42999 23.5448 8.14912 20.5 8.007C18.89 7.95102 17.2852 8.21979 15.7813 8.7973C14.2774 9.3748 12.9051 10.2492 11.7464 11.3684C10.5876 12.4876 9.66609 13.8286 9.0367 15.3116C8.40732 16.7945 8.08297 18.389 8.08301 20C8.08671 23.1815 9.35219 26.2316 11.6018 28.4812C13.8515 30.7308 16.9015 31.9963 20.083 32C20.421 32 20.753 31.978 21.083 31.95C21.3334 31.9289 21.5667 31.8143 21.7364 31.629C21.9061 31.4437 21.9999 31.2013 21.999 30.95L21.967 27.362C21.9589 26.653 22.1623 25.9576 22.5512 25.3647C22.9402 24.7718 23.497 24.3083 24.1506 24.0334C24.8042 23.7584 25.5249 23.6845 26.2207 23.821C26.9165 23.9576 27.5558 24.2984 28.057 24.8ZM25.115 16.05C25.4017 15.9739 25.7046 15.9846 25.9853 16.0806C26.2659 16.1766 26.5118 16.3537 26.6919 16.5895C26.8719 16.8253 26.978 17.1091 26.9967 17.4052C27.0154 17.7012 26.946 17.9962 26.797 18.2528C26.6481 18.5093 26.4265 18.716 26.1601 18.8466C25.8938 18.9772 25.5947 19.0259 25.3007 18.9866C25.0066 18.9472 24.7309 18.8215 24.5083 18.6255C24.2857 18.4294 24.1262 18.1717 24.05 17.885C23.9994 17.6946 23.9868 17.4961 24.013 17.3008C24.0391 17.1055 24.1035 16.9173 24.2024 16.7469C24.3013 16.5765 24.4328 16.4272 24.5894 16.3077C24.746 16.1881 24.9246 16.1005 25.115 16.05ZM15.885 24.95C15.5983 25.0261 15.2954 25.0154 15.0147 24.9194C14.7341 24.8234 14.4882 24.6463 14.3081 24.4105C14.1281 24.1747 14.022 23.8909 14.0033 23.5948C13.9846 23.2988 14.0541 23.0038 14.203 22.7472C14.3519 22.4907 14.5735 22.284 14.8399 22.1534C15.1062 22.0228 15.4053 21.9741 15.6993 22.0134C15.9934 22.0528 16.2691 22.1785 16.4917 22.3745C16.7144 22.5706 16.8738 22.8283 16.95 23.115C17.0006 23.3054 17.0132 23.5039 16.987 23.6992C16.9609 23.8945 16.8965 24.0827 16.7976 24.2531C16.6987 24.4235 16.5672 24.5728 16.4106 24.6923C16.2541 24.8119 16.0754 24.8995 15.885 24.95ZM15.885 18.95C15.5983 19.0261 15.2954 19.0154 15.0147 18.9194C14.7341 18.8234 14.4882 18.6463 14.3081 18.4105C14.1281 18.1747 14.022 17.8909 14.0033 17.5948C13.9846 17.2988 14.0541 17.0038 14.203 16.7472C14.3519 16.4907 14.5735 16.284 14.8399 16.1534C15.1062 16.0228 15.4053 15.9741 15.6993 16.0134C15.9934 16.0528 16.2691 16.1785 16.4917 16.3745C16.7144 16.5706 16.8738 16.8283 16.95 17.115C17.0006 17.3054 17.0132 17.5039 16.987 17.6992C16.9609 17.8945 16.8965 18.0827 16.7976 18.2531C16.6987 18.4235 16.5672 18.5728 16.4106 18.6923C16.2541 18.8119 16.0754 18.8995 15.885 18.95ZM20.885 15.95C20.5983 16.0261 20.2954 16.0154 20.0147 15.9194C19.7341 15.8234 19.4882 15.6463 19.3081 15.4105C19.1281 15.1747 19.022 14.8909 19.0033 14.5948C18.9846 14.2988 19.0541 14.0038 19.203 13.7472C19.3519 13.4907 19.5735 13.284 19.8399 13.1534C20.1062 13.0228 20.4053 12.9741 20.6993 13.0134C20.9934 13.0528 21.2691 13.1785 21.4917 13.3745C21.7144 13.5706 21.8738 13.8283 21.95 14.115C22.0006 14.3054 22.0132 14.5039 21.987 14.6992C21.9609 14.8945 21.8965 15.0827 21.7976 15.2531C21.6987 15.4235 21.5672 15.5728 21.4106 15.6923C21.2541 15.8119 21.0754 15.8995 20.885 15.95Z" fill="white"/></g><defs><clipPath id="clip0_2299_294"><rect width="24" height="24" fill="white" transform="translate(8 8)"/></clipPath></defs></svg>