<svg width="40" height="40" viewBox="0 0 40 40" fill="none" xmlns="http://www.w3.org/2000/svg">
<rect width="40" height="40" rx="12" fill="#F1A33D"/>
<g clip-path="url(#clip0_2299_233)">
<path d="M24.5851 17.6159L23.2101 13.9999H25.6321C26.553 14.0021 27.4605 14.2205 28.2817 14.6373C29.1029 15.0541 29.8148 15.6579 30.3601 16.3999L31.1471 17.4749C31.4825 17.9325 31.7269 18.4502 31.8671 18.9999H24.9521C24.8811 18.5265 24.758 18.0623 24.5851 17.6159ZM20.0001 11.9999C20.2653 11.9999 20.5197 11.8946 20.7072 11.707C20.8947 11.5195 21.0001 11.2651 21.0001 10.9999V8.99993C21.0001 8.73471 20.8947 8.48036 20.7072 8.29282C20.5197 8.10529 20.2653 7.99993 20.0001 7.99993C19.7349 7.99993 19.4805 8.10529 19.293 8.29282C19.1055 8.48036 19.0001 8.73471 19.0001 8.99993V10.9999C19.0001 11.2651 19.1055 11.5195 19.293 11.707C19.4805 11.8946 19.7349 11.9999 20.0001 11.9999ZM22.7221 18.3429L21.0711 13.9999H18.9381L17.2601 18.4519C17.1957 18.6312 17.1423 18.8142 17.1001 18.9999H22.9211C22.8711 18.7763 22.8046 18.5567 22.7221 18.3429ZM24.5531 11.8999C24.6712 11.9593 24.7998 11.9947 24.9316 12.004C25.0634 12.0133 25.1958 11.9965 25.3211 11.9543C25.4463 11.9122 25.562 11.8457 25.6614 11.7586C25.7608 11.6715 25.8419 11.5656 25.9001 11.4469L26.9001 9.44693C27.0186 9.20956 27.038 8.93482 26.954 8.68315C26.87 8.43147 26.6895 8.22348 26.4521 8.10493C26.2147 7.98638 25.94 7.96698 25.6883 8.05099C25.4366 8.13501 25.2286 8.31556 25.1101 8.55293L24.1101 10.5529C24.0504 10.6704 24.0145 10.7985 24.0044 10.9299C23.9944 11.0613 24.0104 11.1933 24.0516 11.3185C24.0927 11.4437 24.1582 11.5595 24.2443 11.6593C24.3304 11.7591 24.4353 11.8408 24.5531 11.8999ZM19.9881 26.8869L22.7741 21.6339C22.8448 21.4268 22.9006 21.215 22.9411 20.9999H17.0001C17.0451 21.2575 17.112 21.5108 17.2001 21.7569L19.9881 26.8869ZM15.4001 17.7289L16.8001 13.9999H14.3831C13.4811 14.0023 12.5917 14.2117 11.7834 14.612C10.9752 15.0123 10.2696 15.5929 9.72109 16.3089L8.90009 17.3829C8.53836 17.8639 8.27995 18.4144 8.14109 18.9999H15.0411C15.118 18.5653 15.2382 18.1395 15.4001 17.7289ZM24.9691 20.9999C24.9061 21.4778 24.7907 21.9473 24.6251 22.3999C24.6101 22.4399 20.8691 29.4739 20.8661 29.4749C20.7846 29.6332 20.6613 29.766 20.5096 29.8591C20.3578 29.9521 20.1835 30.0017 20.0055 30.0025C19.8275 30.0034 19.6527 29.9554 19.5002 29.8637C19.3476 29.7721 19.223 29.6404 19.1401 29.4829C19.1401 29.4829 15.3661 22.5709 15.3501 22.5279C15.171 22.0346 15.0515 21.5216 14.9941 20.9999H8.12109C8.30603 21.8947 8.77118 22.7073 9.44909 23.3199L17.4391 31.0269C18.1409 31.6528 19.0488 31.9978 19.9891 31.9959C20.9493 31.994 21.8751 31.638 22.5891 30.9959L30.5251 23.3629C31.2205 22.741 31.6988 21.913 31.8901 20.9999H24.9691ZM14.1051 11.4469C14.2236 11.685 14.4319 11.8661 14.684 11.9506C14.9362 12.0351 15.2116 12.016 15.4496 11.8974C15.6876 11.7789 15.8688 11.5706 15.9533 11.3185C16.0378 11.0663 16.0186 10.791 15.9001 10.5529L14.9001 8.55293C14.8414 8.4354 14.7601 8.33058 14.6609 8.24445C14.5617 8.15833 14.4465 8.09259 14.3219 8.05099C14.0702 7.96698 13.7955 7.98638 13.5581 8.10493C13.3207 8.22348 13.1402 8.43147 13.0562 8.68315C12.9721 8.93482 12.9915 9.20956 13.1101 9.44693L14.1051 11.4469Z" fill="white"/>
</g>
<defs>
<clipPath id="clip0_2299_233">
<rect width="24" height="24" fill="white" transform="translate(8 8)"/>
</clipPath>
</defs>
</svg>
