<svg width="40" height="40" viewBox="0 0 40 40" fill="none" xmlns="http://www.w3.org/2000/svg">
<g clip-path="url(#clip0_2304_2995)">
<path d="M20 40C31.0457 40 40 31.0457 40 20C40 8.9543 31.0457 0 20 0C8.9543 0 0 8.9543 0 20C0 31.0457 8.9543 40 20 40Z" fill="#F0F0F0"/>
<path d="M38.756 26.9569C39.56 24.7903 40 22.4468 40 20.0004C40 17.554 39.56 15.2106 38.756 13.0439H1.24398C0.440078 15.2106 0 17.554 0 20.0004C0 22.4468 0.440078 24.7903 1.24398 26.9569L20 28.6961L38.756 26.9569Z" fill="#0052B4"/>
<path d="M20.0002 39.9996C28.5995 39.9996 35.9303 34.5721 38.7562 26.9561H1.24414C4.07 34.5721 11.4009 39.9996 20.0002 39.9996Z" fill="#D80027"/>
</g>
<defs>
<clipPath id="clip0_2304_2995">
<rect width="40" height="40" fill="white"/>
</clipPath>
</defs>
</svg>
