<svg width="40" height="40" viewBox="0 0 40 40" fill="none" xmlns="http://www.w3.org/2000/svg">
<g clip-path="url(#clip0_2304_3000)">
<path d="M0.944375 13.9136C0.331719 15.8329 -7.81112e-05 17.8777 1.37933e-08 20.0003C-7.81112e-05 22.1229 0.331797 24.1679 0.944453 26.0872L20 26.9569L39.0555 26.0874C39.6681 24.1679 40.0001 22.1229 40.0001 20.0004C40 17.8778 39.6682 15.8329 39.0555 13.9135L20 13.0439L0.944375 13.9136Z" fill="#F0F0F0"/>
<path d="M39.0557 13.9135L20.0001 13.0439L0.944492 13.9135C0.76293 14.4825 0.606602 15.0628 0.475586 15.6526H39.5243C39.3935 15.0627 39.2372 14.4824 39.0557 13.9135Z" fill="#D80027"/>
<path d="M0.475586 24.3477C0.606445 24.9375 0.762773 25.5177 0.944336 26.0867L0.946211 26.0868L19.9998 26.9563L39.0554 26.0868C39.2369 25.5177 39.3932 24.9375 39.5242 24.3477H0.475586Z" fill="#D80027"/>
<path d="M19.9998 40C28.9229 40 36.48 34.156 39.0554 26.0869H0.944336C3.51973 34.1559 11.0769 40 19.9998 40Z" fill="#6DA544"/>
<path d="M19.9999 7.83288e-10C11.0769 7.81258e-05 3.51988 5.84406 0.944336 13.913L39.0554 13.9131C36.4801 5.84398 28.923 -7.81242e-05 19.9999 7.83288e-10Z" fill="#338AF3"/>
<path d="M9.13943 8.26062C9.13943 6.38742 10.4559 4.82258 12.214 4.43867C11.9438 4.37961 11.6634 4.34766 11.3754 4.34766C9.21436 4.34766 7.4624 6.09953 7.4624 8.2607C7.4624 10.4219 9.2142 12.1738 11.3754 12.1738C11.6634 12.1738 11.9437 12.1417 12.214 12.0827C10.456 11.6987 9.13943 10.1338 9.13943 8.26062Z" fill="#F0F0F0"/>
<path d="M14.5265 10.0391L14.7913 10.8543H15.6485L14.9551 11.3582L15.2199 12.1734L14.5265 11.6696L13.8329 12.1734L14.0978 11.3582L13.4043 10.8543H14.2615L14.5265 10.0391Z" fill="#F0F0F0"/>
<path d="M17.2627 10.0391L17.5276 10.8543H18.3848L17.6912 11.3582L17.9562 12.1734L17.2627 11.6696L16.5691 12.1734L16.8341 11.3582L16.1406 10.8543H16.9977L17.2627 10.0391Z" fill="#F0F0F0"/>
<path d="M19.9987 10.0391L20.2635 10.8543H21.1208L20.4272 11.3582L20.6921 12.1734L19.9987 11.6696L19.3051 12.1734L19.5701 11.3582L18.8765 10.8543H19.7337L19.9987 10.0391Z" fill="#F0F0F0"/>
<path d="M22.7345 10.0391L22.9994 10.8543H23.8565L23.1631 11.3582L23.428 12.1734L22.7345 11.6696L22.0409 12.1734L22.3059 11.3582L21.6123 10.8543H22.4695L22.7345 10.0391Z" fill="#F0F0F0"/>
<path d="M25.4707 10.0391L25.7356 10.8543H26.5928L25.8993 11.3582L26.1643 12.1734L25.4707 11.6696L24.7771 12.1734L25.0421 11.3582L24.3486 10.8543H25.2057L25.4707 10.0391Z" fill="#F0F0F0"/>
<path d="M17.2627 7.19336L17.5276 8.00852H18.3848L17.6912 8.5125L17.9562 9.32766L17.2627 8.82383L16.5691 9.32766L16.8341 8.5125L16.1406 8.00852H16.9977L17.2627 7.19336Z" fill="#F0F0F0"/>
<path d="M19.9987 7.19336L20.2635 8.00852H21.1208L20.4272 8.5125L20.6921 9.32766L19.9987 8.82383L19.3051 9.32766L19.5701 8.5125L18.8765 8.00852H19.7337L19.9987 7.19336Z" fill="#F0F0F0"/>
<path d="M22.735 7.19336L22.9999 8.00852H23.857L23.1636 8.5125L23.4285 9.32766L22.735 8.82383L22.0414 9.32766L22.3064 8.5125L21.6128 8.00852H22.47L22.735 7.19336Z" fill="#F0F0F0"/>
<path d="M25.4707 7.19336L25.7356 8.00852H26.5928L25.8993 8.5125L26.1643 9.32766L25.4707 8.82383L24.7771 9.32766L25.0421 8.5125L24.3486 8.00852H25.2057L25.4707 7.19336Z" fill="#F0F0F0"/>
<path d="M19.9987 4.34766L20.2635 5.16297H21.1208L20.4272 5.6668L20.6921 6.48211L19.9987 5.97828L19.3051 6.48211L19.5701 5.6668L18.8765 5.16297H19.7337L19.9987 4.34766Z" fill="#F0F0F0"/>
<path d="M22.735 4.34766L22.9999 5.16297H23.857L23.1636 5.6668L23.4285 6.48211L22.735 5.97828L22.0414 6.48211L22.3064 5.6668L21.6128 5.16297H22.47L22.735 4.34766Z" fill="#F0F0F0"/>
<path d="M25.4707 4.34766L25.7356 5.16297H26.5928L25.8993 5.6668L26.1643 6.48211L25.4707 5.97828L24.7771 6.48211L25.0421 5.6668L24.3486 5.16297H25.2057L25.4707 4.34766Z" fill="#F0F0F0"/>
</g>
<defs>
<clipPath id="clip0_2304_3000">
<rect width="40" height="40" fill="white"/>
</clipPath>
</defs>
</svg>
