<svg width="120" height="120" viewBox="0 0 120 120" fill="none" xmlns="http://www.w3.org/2000/svg"><path d="M20.5168 64.7157C20.5168 65.6283 20.3857 66.4865 20.1234 67.2904C19.8612 68.0725 19.3913 68.7569 18.7138 69.3436C18.0582 69.9303 17.1402 70.3973 15.9601 70.745C14.8018 71.0709 13.3157 71.2339 11.5017 71.2339H3.04395V50.376H11.5673C13.119 50.376 14.4303 50.5172 15.5012 50.7997C16.5721 51.0604 17.4353 51.4515 18.0909 51.9729C18.7466 52.4726 19.2165 53.0919 19.5006 53.8306C19.7847 54.5476 19.9267 55.3514 19.9267 56.2422C19.9267 56.5681 19.8721 56.9375 19.7628 57.3503C19.6535 57.7631 19.4787 58.1651 19.2383 58.5562C18.998 58.9255 18.681 59.2623 18.2876 59.5665C17.8943 59.8489 17.4134 60.0336 16.8452 60.1205C17.4134 60.2074 17.9161 60.4138 18.3532 60.7397C18.8122 61.0439 19.1946 61.4133 19.5006 61.8478C19.8284 62.2823 20.0798 62.7603 20.2546 63.2818C20.4294 63.7815 20.5168 64.2595 20.5168 64.7157ZM14.1243 64.7483C14.1243 64.1835 13.9713 63.7272 13.6653 63.3795C13.3594 63.0319 12.7147 62.8581 11.7312 62.8581H9.33812V66.769H11.6329C12.66 66.769 13.3266 66.5734 13.6325 66.1823C13.9604 65.7913 14.1243 65.3132 14.1243 64.7483ZM13.6982 56.6985C13.6982 56.4595 13.6653 56.2314 13.5998 56.0141C13.556 55.7969 13.4577 55.6121 13.3048 55.4601C13.1518 55.308 12.9332 55.1885 12.6491 55.1015C12.3651 55.0147 11.9825 54.9712 11.5017 54.9712H9.33812V58.4584H11.4362C12.3978 58.4584 13.0098 58.2955 13.272 57.9695C13.556 57.6219 13.6982 57.1983 13.6982 56.6985Z" fill="#4143ED"/><path d="M36.253 71.2341L35.1712 68.9528C34.4936 69.8436 33.6741 70.5062 32.7126 70.9408C31.7509 71.3536 30.5817 71.56 29.2048 71.56C28.2869 71.56 27.4237 71.4623 26.615 71.2667C25.8283 71.0929 25.1399 70.8104 24.5498 70.4194C23.9597 70.0066 23.4898 69.496 23.1401 68.8876C22.8123 68.2793 22.6484 67.5514 22.6484 66.7041C22.6484 65.7698 22.8451 64.9768 23.2385 64.325C23.6319 63.6732 24.2656 63.13 25.1399 62.6954C26.0141 62.261 27.1396 61.9242 28.5164 61.6852C29.8933 61.4244 31.5542 61.2288 33.4993 61.0985C33.4993 59.947 33.3573 59.154 33.0731 58.7194C32.7891 58.2632 32.2099 58.035 31.3357 58.035C30.5052 58.035 29.9479 58.2414 29.6638 58.6542C29.3797 59.067 29.2376 59.6645 29.2376 60.4467H23.1729C23.1729 59.6645 23.2931 58.9041 23.5335 58.1654C23.774 57.4266 24.1892 56.7749 24.7792 56.2099C25.3912 55.6234 26.2107 55.1562 27.2379 54.8086C28.2869 54.4609 29.5982 54.2871 31.1718 54.2871C33.0076 54.2871 34.4828 54.4935 35.5974 54.9063C36.7119 55.3191 37.5643 55.8732 38.1544 56.5684C38.7663 57.2637 39.1707 58.0676 39.3673 58.9801C39.564 59.8927 39.6623 60.8596 39.6623 61.8807V71.2341H36.253ZM30.9751 64.2598C30.2101 64.3684 29.6747 64.6074 29.3688 64.9768C29.0846 65.3244 28.9426 65.6829 28.9426 66.0523C28.9426 66.5737 29.0955 66.9756 29.4015 67.2581C29.7294 67.5406 30.2538 67.6818 30.9751 67.6818C31.6745 67.6818 32.2645 67.3884 32.7453 66.8018C33.2262 66.1935 33.4665 65.2592 33.4665 63.999L30.9751 64.2598Z" fill="#4143ED"/><path d="M72.2681 71.2338L68.7278 64.6506V71.2338H62.6631V48.1924H68.7278V60.7397L71.8752 54.6127H79.6439L73.8091 62.5322L79.9718 71.2338H72.2681Z" fill="#4143ED"/><path d="M99.0857 71.234L96.5361 66.4941V71.234H92.1699V59.2471H96.5361V63.6782L98.8087 59.2471H104.421L100.195 64.9688L104.632 71.234H99.0857Z" fill="#4143ED"/><path d="M106.146 71.2348V68.0435L111.481 62.6934H106.146V59.2676H116.72V62.4588L111.268 67.8089H116.956V71.2348H106.146Z" fill="#4143ED"/><path d="M53.1972 71.2341V61.9458C53.1972 61.381 53.1644 60.9247 53.0989 60.5771C53.0333 60.2077 52.924 59.9253 52.771 59.7297C52.6399 59.5342 52.4433 59.4038 52.181 59.3386C51.9406 59.2518 51.6236 59.2083 51.2303 59.2083C50.4653 59.2083 49.9299 59.393 49.624 59.7623C49.318 60.1316 49.165 60.8596 49.165 61.9458V71.2341H43.002V54.613H46.4441L47.4604 56.6336C48.0068 55.96 48.728 55.406 49.624 54.9715C50.5201 54.5152 51.5581 54.2871 52.7383 54.2871C54.2026 54.2871 55.3718 54.4826 56.2459 54.8738C57.1202 55.2431 57.7867 55.7646 58.2457 56.4381C58.7046 57.1116 58.9997 57.9046 59.1308 58.8172C59.2619 59.708 59.3275 60.6748 59.3275 61.7178V71.2341H53.1972Z" fill="#4143ED"/><path d="M88.9677 63.7207H83.1101C82.6454 63.7207 82.2686 64.0954 82.2686 64.5575V70.3809C82.2686 70.8431 82.6454 71.2178 83.1101 71.2178H88.9677C89.4331 71.2178 89.81 70.8431 89.81 70.3809V64.5575C89.81 64.0954 89.4331 63.7207 88.9677 63.7207Z" fill="#4143ED"/></svg>