<svg width="120" height="120" viewBox="0 0 120 120" fill="none" xmlns="http://www.w3.org/2000/svg"><path d="M32.4688 78.9594L36.4485 73.1931H20.4821C20.4821 73.1931 19.8778 73.2673 19.7059 72.6603C19.5388 72.0582 19.8827 71.7248 19.8827 71.7248L24.8484 64.7633H17.139L11.2758 72.6696C11.2758 72.6696 10.225 74.4342 10.1506 75.9998C10.0763 77.5699 11.3223 78.8112 12.8986 78.9594H32.4688ZM76.4454 78.9085L86.0425 64.8561H102.443L97.8998 71.2199H89.1166L83.8021 78.9085H76.4454ZM93.7563 53.4067H117.865L113.426 59.6174H89.5719L93.7563 53.4067ZM65.9278 78.9085L75.5201 64.8561H82.7376L73.2845 78.9085H65.9278ZM83.1323 53.4067H90.6364L86.3865 59.6174H78.9479L83.1323 53.4067ZM64.8731 78.9085L63.0552 70.0481C63.0552 70.0481 66.7647 69.2607 69.1362 67.2505C70.8984 65.75 73.4238 60.1267 73.4238 60.1267C73.4238 60.1267 73.8332 58.8533 73.9347 57.6304C74.0379 56.4075 73.3124 54.9953 73.0192 54.579C72.0612 53.2255 70.448 53.4573 70.448 53.4573H52.8898L48.8544 59.5667H64.1803C64.1803 59.5667 64.8453 59.4655 65.3513 59.9749C65.8639 60.4794 65.8115 60.9888 65.8115 61.2435C65.8115 61.4982 64.9468 62.9756 64.3851 63.6379C63.8217 64.2956 62.7473 64.7542 62.3395 64.8561C61.9301 64.9579 61.4732 64.9579 61.4732 64.9579H54.4767L57.3641 78.9085L64.8731 78.9085ZM35.5199 78.9085L45.1252 64.8561H52.4492L43.2844 78.9085H35.5199ZM50.0679 53.4394L45.8131 59.65H21.2912C21.2912 59.65 22.6391 57.5422 25.3086 55.6026C27.9781 53.6614 30.9489 53.3643 30.9489 53.3643L50.0679 53.4394Z" fill="#4143ED"/><path d="M15.5207 48.5854C17.8502 47.7887 18.8179 47.3674 20.1052 48.7242C21.3892 50.0809 22.0394 51.8638 22.0394 51.8638C22.0394 51.8638 20.9372 52.9626 19.1471 53.6107C17.9665 54.0418 16.5204 54.236 16.5204 54.236C16.5204 54.236 16.8692 52.9985 17.2411 51.9797C17.6085 50.956 18.7197 48.5854 18.7197 48.5854L17.5852 48.4548C17.5852 48.4548 16.2647 50.2246 15.2139 52.6654C14.4141 54.5267 13.9445 56.6214 13.9445 56.6214C13.9445 56.6214 18.0734 56.1577 20.4639 55.3887C22.8533 54.6197 24.6254 53.9291 25.0807 53.4197C25.5409 52.9103 26.3876 51.7152 26.9362 48.6132C27.4013 45.978 26.5776 44.1103 26.5776 44.1103C26.5776 44.1103 26.2795 43.9715 25.043 44.5184C24.8055 44.6246 24.5926 44.7405 24.401 44.8515C23.9965 45.0882 23.4806 45.6025 23.2022 45.978C23.592 46.8025 23.9834 48.1087 23.6804 49.2613C22.3096 47.1862 21.0911 46.0923 19.966 45.7135C18.3338 45.1715 17.4735 45.4393 14.163 46.9217C11.2755 48.2148 5.97495 51.2989 3.27811 52.9577C2.59925 53.3789 2.13428 53.6613 2.13428 53.6613C2.13428 53.6613 13.0146 49.4458 15.5207 48.5854ZM20.8635 45.3935C20.8635 45.3935 21.8265 44.4025 23.6476 43.4017C25.7456 42.2441 28.8753 41.1421 28.8753 41.1421C28.8753 41.1421 26.3597 41.6058 22.9794 43.1976C21.7184 43.7952 20.0774 45.1389 20.0774 45.1389L20.8635 45.3935Z" fill="#4143ED"/></svg>