<svg width="120" height="120" viewBox="0 0 120 120" fill="none" xmlns="http://www.w3.org/2000/svg"><path d="M9.48497 56.2002H13.732V60.344H13.7384V64.4507H9.49864V62.3863H11.6163V60.3148H11.6117V58.2672H9.48497V60.3148H9.48315V62.3836H7.37193V60.3077H7.36738V58.2655H9.50047V56.2011H5.24522V60.3361H5.2516V64.4507H9.48315V66.515H15.8614V60.3148H15.8514V54.1341H9.50047V52.0723H1V60.3361H1.01185V68.5847H9.48315V70.6438H20.1058V60.3148H20.0921V50H9.48497V52.067H17.9718V60.344H17.9836V68.5794H9.49864V66.5177H3.13218V60.3077H3.12216V54.1367H9.48497V56.2002Z" fill="#4143ED"/><path d="M107.389 65.5675V55.5312H110.341L112.998 61.5333H113.391L116.048 55.5312H119V65.5675H116.933V58.4831L116.953 58.2863H116.855L114.375 63.7964H112.014L109.534 58.2863H109.436L109.455 58.4831V65.5675H107.389Z" fill="#4143ED"/><path d="M96.687 64.2687C95.6899 63.2585 95.1914 62.0187 95.1914 60.5494C95.1914 59.08 95.6899 57.8468 96.687 56.8497C97.6972 55.8396 98.937 55.3345 100.406 55.3345C101.876 55.3345 103.109 55.8396 104.106 56.8497C105.116 57.8468 105.621 59.08 105.621 60.5494C105.621 62.0187 105.116 63.2585 104.106 64.2687C103.109 65.2658 101.876 65.7643 100.406 65.7643C98.937 65.7643 97.6972 65.2658 96.687 64.2687ZM98.2023 58.1289C97.6381 58.7324 97.3561 59.5392 97.3561 60.5494C97.3561 61.5596 97.6381 62.373 98.2023 62.9896C98.7664 63.5931 99.5011 63.8948 100.406 63.8948C101.312 63.8948 102.046 63.5931 102.61 62.9896C103.174 62.373 103.457 61.5596 103.457 60.5494C103.457 59.5392 103.174 58.7324 102.61 58.1289C102.046 57.5123 101.312 57.204 100.406 57.204C99.5011 57.204 98.7664 57.5123 98.2023 58.1289Z" fill="#4143ED"/><path d="M83.5723 67.7322V63.698H84.5562L86.8193 55.5312H91.247L93.5101 63.698H94.4941V67.7322H92.6246V65.5675H85.4418V67.7322H83.5723ZM86.7209 63.698H91.3454L89.6727 57.4007H88.3936L86.7209 63.698Z" fill="#4143ED"/><path d="M72.855 69.3065V55.5313H74.9213V56.8104H75.0197C75.2558 56.5349 75.5247 56.2922 75.8265 56.0823C76.5349 55.5837 77.3155 55.3345 78.1683 55.3345C79.5196 55.3345 80.6413 55.8199 81.5334 56.7907C82.4386 57.7484 82.8912 59.0013 82.8912 60.5494C82.8912 62.0975 82.4386 63.3569 81.5334 64.3277C80.6413 65.2854 79.5196 65.7643 78.1683 65.7643C77.3024 65.7643 76.5218 65.5216 75.8265 65.0362C75.5116 64.8131 75.2427 64.5639 75.0197 64.2884H74.9213V69.3065H72.855ZM75.6887 58.0895C75.1771 58.6668 74.9213 59.4867 74.9213 60.5494C74.9213 61.612 75.1771 62.4386 75.6887 63.0289C76.2135 63.6062 76.9088 63.8948 77.7747 63.8948C78.6931 63.8948 79.4146 63.6062 79.9394 63.0289C80.4642 62.4517 80.7265 61.6252 80.7265 60.5494C80.7265 59.4736 80.4642 58.6471 79.9394 58.0698C79.4146 57.4926 78.6931 57.204 77.7747 57.204C76.9088 57.204 76.2135 57.4992 75.6887 58.0895Z" fill="#4143ED"/><path d="M62.3255 64.2687C61.3416 63.2585 60.8496 62.0187 60.8496 60.5494C60.8496 59.08 61.3416 57.8468 62.3255 56.8497C63.3226 55.8396 64.5361 55.3345 65.9661 55.3345C67.3961 55.3345 68.6031 55.8396 69.587 56.8497C70.5841 57.8468 71.0826 59.08 71.0826 60.5494V61.2381H62.9159C63.0733 62.0647 63.4341 62.7141 63.9982 63.1864C64.5624 63.6587 65.2183 63.8948 65.9661 63.8948C66.8845 63.8948 67.6192 63.6652 68.1702 63.206C68.4194 63.0224 68.6359 62.7928 68.8196 62.5173H70.9842C70.7087 63.1601 70.3611 63.7046 69.9413 64.1506C68.8655 65.2264 67.5404 65.7643 65.9661 65.7643C64.5361 65.7643 63.3226 65.2658 62.3255 64.2687ZM63.0143 59.5654H68.918C68.7999 58.9095 68.485 58.3519 67.9734 57.8927C67.4748 57.4336 66.8058 57.204 65.9661 57.204C65.2577 57.204 64.628 57.4204 64.0769 57.8534C63.5259 58.2732 63.1717 58.8439 63.0143 59.5654Z" fill="#4143ED"/><path d="M49.936 59.9587C49.936 57.125 50.4936 55.0587 51.6087 53.7599C52.737 52.448 54.4097 51.792 56.6269 51.792H58.9883V53.6615H56.8237C55.3018 53.6615 54.1408 54.0157 53.3405 54.7242C52.5402 55.4326 52.0942 56.4231 52.0023 57.6957H52.1007C52.245 57.4858 52.4877 57.2562 52.8288 57.0069C53.5635 56.5477 54.3703 56.3181 55.2493 56.3181C56.5481 56.3181 57.6239 56.7642 58.4767 57.6563C59.3426 58.5484 59.7755 59.6767 59.7755 61.0411C59.7755 62.4317 59.3163 63.5665 58.398 64.4455C57.4927 65.3245 56.312 65.764 54.8558 65.764C53.3864 65.764 52.1991 65.2524 51.2939 64.2291C50.3886 63.2058 49.936 61.7823 49.936 59.9587ZM52.8879 58.9945C52.3631 59.5324 52.1007 60.2146 52.1007 61.0411C52.1007 61.8676 52.3631 62.5498 52.8879 63.0877C53.4126 63.6256 54.0686 63.8945 54.8558 63.8945C55.6429 63.8945 56.2989 63.6256 56.8237 63.0877C57.3484 62.5498 57.6108 61.8676 57.6108 61.0411C57.6108 60.2146 57.3484 59.5324 56.8237 58.9945C56.2989 58.4566 55.6429 58.1876 54.8558 58.1876C54.0686 58.1876 53.4126 58.4566 52.8879 58.9945Z" fill="#4143ED"/><path d="M39.0127 65.5675V55.5312H41.079V62.2221L41.0593 62.4189H41.2561L45.8019 55.5312H48.065V65.5675H45.9987V58.8767L46.0184 58.6799H45.8216L41.2758 65.5675H39.0127Z" fill="#4143ED"/><path d="M28.5776 65.5675V55.5312H30.6439V59.467H32.1198L35.1701 55.5312H37.5315L33.8909 60.1558L37.8267 65.5675H35.2685L32.2182 61.3365H30.6439V65.5675H28.5776Z" fill="#4143ED"/></svg>