<svg width="120" height="120" viewBox="0 0 120 120" fill="none" xmlns="http://www.w3.org/2000/svg"><path d="M17.9781 49.7235C16.3289 49.0054 14.2864 48.644 11.8561 48.644H2.04248V71.2065H11.8561C14.2864 71.2065 16.3233 70.841 17.9781 70.1102C19.6273 69.3795 20.8831 68.1879 21.7372 66.5312C22.5913 64.8744 23.0156 62.674 23.0156 59.9251C23.0156 57.135 22.5913 54.9177 21.7372 53.2694C20.8831 51.6252 19.6329 50.4419 17.9781 49.7235ZM17.9612 61.1004C17.9612 62.5619 17.7281 63.7287 17.2561 64.6005C16.7869 65.4725 16.0873 66.0993 15.1573 66.4814C14.2274 66.8632 13.0951 67.0543 11.7606 67.0543H7.00129V52.7962H11.7606C13.7947 52.7962 15.3371 53.2362 16.3851 54.1206C17.4359 55.0051 17.9612 56.4913 17.9612 58.5841V61.1004Z" fill="#4143ED"/><path d="M40.4119 56.147C38.9425 54.8724 36.8101 54.2329 34.009 54.2329C31.2304 54.2329 29.112 54.9013 27.6594 56.2426C26.2041 57.5835 25.4736 59.834 25.4736 62.9938C25.4736 66.0911 26.2013 68.3041 27.6594 69.633C29.112 70.9617 31.2304 71.6258 34.009 71.6258C36.4814 71.6258 38.4396 71.1609 39.8865 70.2348C41.3306 69.3091 42.2015 67.8849 42.5106 65.9666H37.8187C37.7962 65.9666 37.7822 65.9832 37.7765 66.004C37.5967 66.8137 37.2146 67.42 36.619 67.8144C36.0178 68.217 35.1468 68.4204 34.009 68.4204C32.784 68.4204 31.8372 68.1049 31.1713 67.4739C30.5055 66.8426 30.1712 65.7632 30.1712 64.2351V63.4172H37.8861H41.9234H42.6117V62.4373C42.6117 59.5227 41.8784 57.4217 40.4119 56.147ZM31.1713 58.2727C31.8372 57.7164 32.784 57.4383 34.009 57.4383C35.3014 57.4383 36.2678 57.7164 36.914 58.2727C37.5237 58.7961 37.8384 59.6637 37.8777 60.8721H30.1768C30.2049 59.6721 30.5336 58.8043 31.1713 58.2727Z" fill="#4143ED"/><path d="M60.9777 55.7404C59.8932 54.7396 58.3339 54.2373 56.2998 54.2373C55.0973 54.2373 54.0213 54.4281 53.0661 54.8102C52.1164 55.1923 51.3579 55.7983 50.8044 56.6246C50.6864 56.799 50.5824 56.9859 50.4925 57.1811V54.6607H45.8315V71.2068H50.6246V60.7767C50.6246 59.5976 50.9617 58.7755 51.6416 58.3063C52.3215 57.8371 53.2178 57.6045 54.3332 57.6045C55.1002 57.6045 55.7379 57.6958 56.2549 57.8827C56.7662 58.0695 57.1595 58.3892 57.4208 58.846C57.6849 59.3029 57.817 59.9381 57.817 60.7436V71.2068H62.61V60.5776C62.5988 58.3561 62.0565 56.7409 60.9777 55.7404Z" fill="#4143ED"/><path d="M78.3209 54.6602V65.1234C78.3209 66.3025 77.9697 67.1165 77.2701 67.5772C76.5705 68.034 75.6743 68.2625 74.5786 68.2625C73.8341 68.2625 73.2047 68.1751 72.6906 68.0009C72.1792 67.8264 71.7859 67.5109 71.5246 67.0541C71.2605 66.5975 71.1285 65.9539 71.1285 65.1234V54.6602H66.3691V65.2563C66.3691 67.5899 66.9114 69.234 67.9931 70.1932C69.0775 71.1523 70.6143 71.6339 72.6063 71.6339C73.834 71.6339 74.9241 71.4386 75.8906 71.0442C76.8543 70.6497 77.6072 70.0437 78.1551 69.2132C78.2506 69.068 78.3377 68.9059 78.4164 68.744V71.2063H83.0746V54.6602H78.3209Z" fill="#4143ED"/><path d="M118.699 66.4233H113.898V71.2066H118.699V66.4233Z" fill="#4143ED"/><path d="M112.434 55.757C111.459 54.7439 110.043 54.2373 108.183 54.2373C106.981 54.2373 105.907 54.4323 104.966 54.8267C104.025 55.2212 103.283 55.8356 102.733 56.6746C102.612 56.8614 102.502 57.0648 102.407 57.2766C102.171 56.6619 101.853 56.1514 101.454 55.7443C100.471 54.7439 99.0437 54.2412 97.1866 54.2412C96.0909 54.2412 95.1019 54.4365 94.2141 54.831C93.3263 55.2254 92.6183 55.8399 92.0817 56.6785C91.989 56.8198 91.9103 56.9735 91.8344 57.1272V54.6691H87.1763V71.215H91.9693V60.7517C91.9693 59.5726 92.2643 58.759 92.8571 58.2979C93.4471 57.8411 94.2225 57.6129 95.1862 57.6129C95.8436 57.6129 96.3915 57.7043 96.827 57.8911C97.2653 58.0779 97.594 58.3934 97.8103 58.8376C98.0266 59.286 98.139 59.9215 98.139 60.7517V71.215H102.932V60.7849C102.932 59.9794 103.07 59.3442 103.342 58.8876C103.618 58.4308 103.991 58.1026 104.475 57.9077C104.955 57.7124 105.511 57.6129 106.149 57.6129C106.804 57.6129 107.346 57.7043 107.776 57.8911C108.2 58.0779 108.529 58.3934 108.759 58.8376C108.987 59.286 109.105 59.9215 109.105 60.7517V66.4318H113.898V60.6189C113.898 58.3892 113.409 56.7701 112.434 55.757Z" fill="#4143ED"/></svg>