<svg width="120" height="120" viewBox="0 0 120 120" fill="none" xmlns="http://www.w3.org/2000/svg"><g clip-path="url(#clip0_2300_644)"><mask id="mask0_2300_644" style="mask-type:luminance" maskUnits="userSpaceOnUse" x="1" y="50" width="118" height="20"><path d="M119 50.6138H1V69.3865H119V50.6138Z" fill="white"/></mask><g mask="url(#mask0_2300_644)"><path d="M11.332 69.1505H1.30225V51.7334H11.332V54.7609H4.99188V58.5868H10.8853V61.6143H4.99188V66.1029H11.327V69.1505H11.332Z" fill="#4143ED"/><path d="M18.9973 69.3866C18.0435 69.3866 17.1851 69.256 16.4171 68.995C15.649 68.7339 14.9964 68.3272 14.4542 67.7749C13.9121 67.2226 13.4954 66.5147 13.2043 65.6562C12.9131 64.7926 12.7676 63.7633 12.7676 62.5634C12.7676 61.2379 12.9182 60.1283 13.2144 59.2346C13.5105 58.3409 13.9322 57.6229 14.4744 57.0857C15.0165 56.5434 15.6741 56.1619 16.4371 55.9309C17.2052 55.7 18.0535 55.5845 18.9923 55.5845C19.6749 55.5845 20.3526 55.6698 21.0303 55.8355C21.703 56.0012 22.3405 56.2372 22.9379 56.5384L21.8888 59.2999C21.3667 59.0689 20.8597 58.8831 20.3778 58.7325C19.8959 58.5869 19.434 58.5116 18.9973 58.5116C18.1138 58.5116 17.4762 58.848 17.0797 59.5157C16.6831 60.1886 16.4823 61.1927 16.4823 62.5333C16.4823 63.8738 16.6831 64.8528 17.0797 65.4855C17.4762 66.1231 18.0987 66.4394 18.9471 66.4394C19.6398 66.4394 20.2674 66.349 20.8295 66.1733C21.3918 65.9925 21.9691 65.7666 22.5564 65.4905V68.518C22.2602 68.6586 21.9791 68.7891 21.698 68.8996C21.4219 69.0101 21.1408 69.1004 20.8597 69.1757C20.5786 69.2461 20.2824 69.3012 19.9762 69.3364C19.67 69.3716 19.3437 69.3916 18.9923 69.3916L18.9973 69.3866Z" fill="#4143ED"/><path d="M35.8895 62.4681C35.8895 63.5777 35.7489 64.5668 35.4678 65.4204C35.1867 66.2789 34.7801 67.0019 34.253 67.5893C33.7259 68.1767 33.0834 68.6236 32.3253 68.9298C31.5673 69.2361 30.714 69.3868 29.7702 69.3868C28.8867 69.3868 28.0785 69.2361 27.3406 68.9298C26.6027 68.6236 25.9651 68.1767 25.428 67.5893C24.8909 67.0019 24.4742 66.2789 24.173 65.4204C23.8718 64.5618 23.7212 63.5777 23.7212 62.4681C23.7212 61.3585 23.8618 60.3845 24.1429 59.5259C24.424 58.6674 24.8306 57.9494 25.3577 57.362C25.8848 56.7796 26.5274 56.3377 27.2804 56.0315C28.0334 55.7302 28.8867 55.5796 29.8405 55.5796C30.724 55.5796 31.5322 55.7302 32.2702 56.0315C33.0081 56.3327 33.6456 56.7745 34.1827 57.362C34.7199 57.9494 35.1365 58.6674 35.4377 59.5259C35.7389 60.3845 35.8895 61.3636 35.8895 62.4681ZM27.436 62.4681C27.436 63.7936 27.6217 64.7927 27.9982 65.4655C28.3697 66.1383 28.9771 66.4697 29.8204 66.4697C30.6637 66.4697 31.2561 66.1333 31.6326 65.4555C32.0041 64.7827 32.1948 63.7836 32.1948 62.4631C32.1948 61.1427 32.0091 60.1485 31.6326 59.4908C31.2611 58.8381 30.6487 58.5067 29.8003 58.5067C28.9519 58.5067 28.3646 58.8331 27.9982 59.4908C27.6318 60.1485 27.446 61.1376 27.446 62.4631L27.436 62.4681Z" fill="#4143ED"/><path d="M66.0793 56.7344C65.6978 56.3377 65.2411 56.0465 64.7089 55.8608C64.1769 55.675 63.5844 55.5796 62.9319 55.5796C62.5504 55.5796 62.1789 55.6198 61.8124 55.6951C61.446 55.7704 61.0996 55.8859 60.7783 56.0465C60.4521 56.2072 60.1508 56.408 59.8798 56.654C59.6037 56.9001 59.3728 57.1963 59.182 57.5377H58.9812L58.4943 55.8356H55.7183V69.1508H59.3527V62.8848C59.3527 62.1769 59.3928 61.5493 59.4731 61.0021C59.5535 60.4548 59.684 59.9929 59.8697 59.6213C60.0555 59.2498 60.3065 58.9686 60.6277 58.7778C60.944 58.587 61.3406 58.4917 61.8175 58.4917C62.455 58.4917 62.9168 58.7326 63.203 59.2146C63.4941 59.6966 63.6397 60.4146 63.6397 61.3786V69.1558H67.2741V60.4648C67.2741 59.6062 67.1687 58.8732 66.9629 58.2557C66.757 57.6381 66.4609 57.136 66.0793 56.7394V56.7344Z" fill="#4143ED"/><path d="M53.1378 55.8306H49.5034V69.1457H53.1378V55.8306Z" fill="#4143ED"/><path d="M52.7111 50.9903C52.5305 50.8497 52.3246 50.7544 52.0837 50.6991C51.8477 50.6439 51.5917 50.6138 51.3206 50.6138C51.0495 50.6138 50.7936 50.6439 50.5526 50.6991C50.3116 50.7544 50.1008 50.8497 49.9201 50.9903C49.7393 51.1309 49.5988 51.3117 49.4984 51.5376C49.393 51.7635 49.3428 52.0497 49.3428 52.3911C49.3428 52.7325 49.393 53.0087 49.4984 53.2346C49.6038 53.4656 49.7444 53.6513 49.9201 53.7869C50.1008 53.9275 50.3066 54.0229 50.5526 54.0831C50.7936 54.1434 51.0495 54.1735 51.3206 54.1735C51.5917 54.1735 51.8427 54.1434 52.0837 54.0831C52.3246 54.0229 52.5305 53.9225 52.7111 53.7869C52.8919 53.6463 53.0324 53.4656 53.1378 53.2346C53.2433 53.0037 53.2985 52.7225 53.2985 52.3911C53.2985 52.0598 53.2433 51.7635 53.1378 51.5376C53.0324 51.3117 52.8869 51.1309 52.7111 50.9903Z" fill="#4143ED"/><path d="M78.7292 56.7244C77.8455 55.9462 76.571 55.5596 74.9143 55.5596C74.0252 55.5596 73.1771 55.665 72.3639 55.8809C71.5506 56.0968 70.8178 56.388 70.15 56.7646L71.33 59.1695C71.8771 58.8934 72.4242 58.6674 72.9666 58.5018C73.5083 58.3361 74.0655 58.2507 74.638 58.2507C75.2099 58.2507 75.6518 58.3813 75.9736 58.6424C76.2894 58.9034 76.4503 59.3101 76.4503 59.8574V60.8565L74.3316 60.9268C72.5295 60.9971 71.1745 61.3686 70.2707 62.0414C69.3669 62.7142 68.915 63.7535 68.915 65.1694C68.915 65.8923 69.0109 66.5199 69.2013 67.0471C69.3924 67.5743 69.6586 68.0112 69.9945 68.3576C70.331 68.704 70.7326 68.9601 71.1892 69.1308C71.6512 69.3014 72.148 69.3868 72.6904 69.3868C73.1972 69.3868 73.6438 69.3466 74.0306 69.2663C74.4175 69.186 74.7634 69.0655 75.0745 68.8948C75.3863 68.7241 75.6719 68.5182 75.9334 68.2571C76.1942 68.0011 76.455 67.6898 76.7211 67.3333H76.8264L77.5297 69.1458H80.0647V60.2741C80.0647 58.6875 79.6229 57.5026 78.7345 56.7244H78.7292ZM76.4503 64.0749C76.4503 64.5016 76.3899 64.8832 76.2693 65.2146C76.1492 65.5459 75.9836 65.8221 75.7778 66.048C75.5666 66.2739 75.3206 66.4446 75.0343 66.5601C74.7487 66.6756 74.4369 66.7309 74.1057 66.7309C73.6692 66.7309 73.3179 66.6153 73.0464 66.3793C72.7755 66.1434 72.6401 65.7518 72.6401 65.1944C72.6401 64.8781 72.685 64.5869 72.7755 64.3309C72.866 64.0749 73.0115 63.8489 73.2173 63.6631C73.4185 63.4773 73.6893 63.3268 74.0206 63.2163C74.3518 63.1058 74.7634 63.0405 75.2455 63.0255L76.4503 62.9803V64.0749Z" fill="#4143ED"/><path d="M118.698 61.6345C118.698 60.6655 118.562 59.8069 118.301 59.0538C118.035 58.3057 117.654 57.6681 117.157 57.156C116.659 56.6388 116.057 56.2472 115.345 55.9811C114.632 55.715 113.839 55.5845 112.955 55.5845C112.071 55.5845 111.228 55.7301 110.485 56.0263C109.742 56.3225 109.109 56.7593 108.578 57.3417C108.051 57.9242 107.639 58.6522 107.343 59.5258C107.046 60.3994 106.901 61.4186 106.901 62.5884C106.901 63.7583 107.062 64.7424 107.383 65.5959C107.704 66.4495 108.156 67.1574 108.733 67.7147C109.31 68.277 110.003 68.6937 110.806 68.9699C111.609 69.2461 112.488 69.3866 113.437 69.3866C113.929 69.3866 114.38 69.3665 114.792 69.3314C115.204 69.2963 115.591 69.236 115.947 69.1607C116.303 69.0853 116.645 68.985 116.966 68.8695C117.287 68.754 117.609 68.6134 117.924 68.4477V65.6361C117.573 65.8118 117.232 65.9624 116.901 66.093C116.57 66.2235 116.228 66.334 115.886 66.4194C115.545 66.5047 115.194 66.5699 114.832 66.6151C114.471 66.6603 114.089 66.6804 113.683 66.6804C113.196 66.6804 112.769 66.6051 112.393 66.4545C112.016 66.3038 111.695 66.0879 111.429 65.8068C111.163 65.5256 110.957 65.1792 110.812 64.7725C110.666 64.3658 110.586 63.9039 110.566 63.3968H118.687V61.6345H118.698ZM110.646 60.9768C110.711 60.0078 110.952 59.2948 111.379 58.8429C111.805 58.3911 112.338 58.1652 112.98 58.1652C113.361 58.1652 113.693 58.2354 113.979 58.3811C114.265 58.5266 114.501 58.7225 114.692 58.9685C114.883 59.2145 115.023 59.5157 115.119 59.8571C115.214 60.1986 115.264 60.5701 115.274 60.9768H110.641H110.646Z" fill="#4143ED"/><path d="M102.183 58.5116C102.619 58.5116 103.081 58.5869 103.563 58.7325C104.045 58.8781 104.552 59.0689 105.074 59.2999L106.123 56.5384C105.525 56.2372 104.893 56.0012 104.215 55.8355C103.543 55.6698 102.86 55.5845 102.177 55.5845C101.239 55.5845 100.39 55.7 99.622 55.9309C98.8544 56.1619 98.2013 56.5485 97.6596 57.0857C97.1172 57.628 96.6955 58.3409 96.3992 59.2346C96.1035 60.1283 95.9526 61.2379 95.9526 62.5634C95.9526 63.7633 96.0981 64.7926 96.3891 65.6562C96.6808 66.5197 97.0971 67.2226 97.6395 67.7749C98.1812 68.3272 98.8389 68.7339 99.6019 68.995C100.37 69.256 101.228 69.3866 102.183 69.3866C102.534 69.3866 102.86 69.3665 103.166 69.3314C103.472 69.2963 103.763 69.241 104.05 69.1707C104.331 69.1004 104.612 69.0101 104.888 68.8946C105.164 68.7841 105.45 68.6586 105.747 68.513V65.4855C105.159 65.7616 104.582 65.9925 104.02 66.1683C103.458 66.349 102.83 66.4344 102.137 66.4344C101.289 66.4344 100.667 66.1181 100.27 65.4804C99.8735 64.8428 99.6723 63.8588 99.6723 62.5282C99.6723 61.1977 99.8735 60.1785 100.27 59.5107C100.667 58.8379 101.304 58.5066 102.187 58.5066L102.183 58.5116Z" fill="#4143ED"/><path d="M92.9354 56.7344C92.5539 56.3377 92.0974 56.0465 91.565 55.8608C91.0333 55.675 90.4407 55.5796 89.7883 55.5796C89.4068 55.5796 89.0354 55.6198 88.6686 55.6951C88.3019 55.7704 87.956 55.8859 87.6348 56.0465C87.3083 56.2072 87.0073 56.408 86.7357 56.654C86.4602 56.9001 86.2289 57.1963 86.0385 57.5377H85.8373L85.3506 55.8356H82.5742V69.1508H86.2088V62.8848C86.2088 62.1769 86.249 61.5493 86.3294 61.0021C86.4099 60.4548 86.54 59.9929 86.7257 59.6213C86.9114 59.2498 87.1628 58.9686 87.484 58.7778C87.8004 58.587 88.1967 58.4917 88.674 58.4917C89.311 58.4917 89.7729 58.7326 90.0592 59.2146C90.3502 59.6966 90.4956 60.4146 90.4956 61.3786V69.1558H94.1302V60.4648C94.1302 59.6062 94.0249 58.8732 93.8191 58.2557C93.6133 57.6381 93.3169 57.136 92.9354 56.7394V56.7344Z" fill="#4143ED"/><path d="M37.9272 69.1505H41.5616V62.262H47.4651V59.2495H41.5616V54.7609H47.9068V51.7334H37.9272V69.1505Z" fill="#4143ED"/></g></g><defs><clipPath id="clip0_2300_644"><rect width="118" height="18.7727" fill="white" transform="translate(1 50.6138)"/></clipPath></defs></svg>