<svg width="120" height="120" viewBox="0 0 120 120" fill="none" xmlns="http://www.w3.org/2000/svg"><g clip-path="url(#clip0_2300_520)"><path d="M36.9649 54.0514H29.9031C29.9966 51.0431 26.335 49.4965 24.1229 51.4933C23.6974 51.8781 23.0177 53.0027 23.0177 53.5659V56.17H36.9649C37.0885 59.1466 34.9205 62.0437 32.0905 62.9035C31.7709 63.0006 30.8529 63.2319 30.5651 63.2319H23.0177C23.3126 66.9941 22.3592 70.615 19.4886 73.1644C12.6509 79.2305 1.91334 74.2643 2.00868 65.2621H8.98227C9.06348 68.2158 12.3702 69.8718 14.7218 67.9563C15.2585 67.5184 15.9559 66.4468 15.9559 65.7477V63.2319H2.00868C1.84096 60.3188 3.99659 57.4111 6.72777 56.5196C7.00318 56.4295 7.91063 56.17 8.14367 56.17H15.9559C15.7405 52.8986 16.2525 49.9697 18.341 47.3886C24.5572 39.7105 37.0444 44.3272 36.9649 54.0514Z" fill="#4143ED"/><path d="M59.4746 49.2847V53.8749H51.53V57.7589H58.327V62.3491H51.53V69.8082L51.3976 69.9406H46.1012L45.9688 69.8082V49.4171L46.1012 49.2847H59.4746Z" fill="#4143ED"/><path d="M107.054 54.0513C108.128 57.5663 109.328 61.0443 110.1 64.6458L112.836 54.0513H118L112.617 69.8098C111.629 72.2815 110.359 74.8802 107.564 75.6147C106.073 76.0066 104.485 75.9042 102.995 75.5882L103.878 71.3528C105.637 71.9284 107.361 71.2805 107.559 69.2908L101.583 54.0513H107.056H107.054Z" fill="#4143ED"/><path d="M89.6644 47.8726V64.9534C89.6644 64.9835 89.8568 65.4672 89.8903 65.5219C90.1322 65.9139 90.6265 65.9633 91.0361 65.8132L91.1226 65.875L91.7812 69.8473C88.967 70.8113 85.5385 70.4758 84.5498 67.2415C84.4456 66.899 84.1914 65.8786 84.1914 65.5696V47.8726H89.6644Z" fill="#4143ED"/><path d="M99.1097 47.8726V65.0417C99.1097 65.612 99.9942 66.1451 100.52 65.792L101.147 69.6337L101.099 69.8579C98.723 70.7248 95.4657 70.52 94.2387 67.9706C94.0463 67.5716 93.6367 66.2369 93.6367 65.8362V47.8726H99.1097Z" fill="#4143ED"/><path d="M66.36 54.0516L66.7149 56.7881C67.7406 55.3263 68.9835 53.8486 70.9044 53.695C71.6529 53.635 72.5851 53.6509 73.2507 54.0216L72.4509 58.7301C70.7225 58.2764 69.2607 58.3188 68.0814 59.7876C67.9578 59.9412 67.3328 60.974 67.3328 61.0693V69.9408H61.8599V54.0516H66.3618H66.36Z" fill="#4143ED"/><path d="M80.5721 54.0513H75.0991V69.9405H80.5721V54.0513Z" fill="#4143ED"/><path d="M77.3748 46.6611C81.8944 46.1368 82.2122 52.6055 77.2636 52.1094C74.0028 51.7827 73.8262 47.0742 77.3748 46.6611Z" fill="#4143ED"/></g><defs><clipPath id="clip0_2300_520"><rect width="116" height="32.3328" fill="white" transform="translate(2 43.5361)"/></clipPath></defs></svg>