<svg width="120" height="120" viewBox="0 0 120 120" fill="none" xmlns="http://www.w3.org/2000/svg"><g clip-path="url(#clip0_2300_558)"><path d="M31.1698 46.2761C31.2048 46.1895 31.2615 46.1113 31.34 46.0416C31.4185 45.9718 31.4752 45.9369 31.5102 45.9369C31.5452 45.9369 31.5754 45.9417 31.6019 45.9502C31.6285 45.9586 31.6418 46.0067 31.6418 46.0933C31.6418 46.1979 31.6334 46.2761 31.6152 46.3278L29.5741 54.957H33.6565L36.1418 43.3031C36.1587 43.2165 36.172 43.1251 36.1817 43.0289C36.1901 42.9339 36.1949 42.8425 36.1949 42.7547C36.1949 42.442 36.1165 42.1774 35.9596 41.9597C35.8026 41.742 35.5974 41.5604 35.3452 41.4125C35.0917 41.2646 34.8044 41.1563 34.482 41.0866C34.1586 41.0168 33.823 40.9819 33.4742 40.9819C32.6896 40.9819 32.0256 41.1082 31.4861 41.3596C30.9453 41.6121 30.4661 42.0944 30.0472 42.8064L25.7041 50.1848C25.6172 50.3242 25.5255 50.4541 25.4289 50.5756C25.3323 50.6971 25.2418 50.7584 25.1537 50.7584C25.0668 50.7584 24.9968 50.6983 24.9449 50.5756C24.893 50.4541 24.8483 50.3242 24.8145 50.1848L23.6111 42.8064C23.4892 42.0944 23.2091 41.6121 22.7734 41.3596C22.3376 41.1082 21.7352 40.9819 20.9675 40.9819C20.1829 40.9819 19.4635 41.1647 18.8093 41.5291C18.155 41.8948 17.741 42.4853 17.566 43.3019L15.0806 54.9558H19.163L20.8372 46.2484C20.854 46.1967 20.8806 46.1354 20.9156 46.0656C20.9506 45.9959 21.0025 45.961 21.0725 45.961C21.1244 45.961 21.1642 45.9959 21.1909 46.0656C21.2174 46.1354 21.2391 46.2135 21.256 46.3001L22.5126 53.8613C22.5995 54.3135 22.7878 54.6347 23.0751 54.8259C23.3624 55.0171 23.786 55.1121 24.3437 55.1121C24.8845 55.1121 25.3468 55.0159 25.7307 54.8259C26.1145 54.6347 26.4368 54.3135 26.6988 53.8613L31.1698 46.2761ZM50.6245 54.9581L53.0845 43.4342C53.1014 43.3476 53.1147 43.261 53.1243 43.1732C53.1328 43.0866 53.1376 43 53.1376 42.9122C53.1376 42.4083 52.9807 41.9609 52.6668 41.57C52.353 41.1792 51.8376 40.9831 51.123 40.9831C50.4422 40.9831 49.806 41.0661 49.2133 41.2309C48.6206 41.3969 48.1233 41.7312 47.7214 42.2351L41.5459 49.6388C41.459 49.7265 41.3794 49.8131 41.3106 49.8998C41.2405 49.9875 41.1536 50.0297 41.0486 50.0297C40.9436 50.0297 40.8917 49.9779 40.8917 49.8732C40.8917 49.7867 40.9002 49.7085 40.9183 49.6388L42.9064 41.1395H38.824L36.3386 52.845C36.3205 52.9316 36.3084 53.0146 36.2988 53.0928C36.2903 53.171 36.2855 53.254 36.2855 53.3406C36.2855 53.8625 36.4641 54.2883 36.8214 54.6178C37.1787 54.9485 37.6724 55.1133 38.3001 55.1133C38.9809 55.1133 39.617 55.0351 40.2097 54.8788C40.8024 54.7225 41.3613 54.3316 41.8839 53.7062L47.9544 46.4589C48.0944 46.3194 48.1934 46.2196 48.2549 46.1594C48.3153 46.0993 48.3817 46.068 48.4517 46.068C48.5386 46.068 48.5821 46.1197 48.5821 46.2244C48.5821 46.2593 48.5821 46.2989 48.5821 46.3422C48.5821 46.3855 48.5736 46.4252 48.5555 46.4601L46.5408 54.9594H50.6245V54.9581ZM52.8092 54.9581H56.8916L59.0113 45.0277C59.1332 44.418 59.5086 44.1137 60.1363 44.1137H68.6173L69.2449 41.1419H58.3824C57.4046 41.1419 56.6816 41.35 56.2108 41.7673C55.7401 42.1846 55.4082 42.8449 55.2162 43.7493L52.8092 54.9581Z" fill="#4143ED"/><path d="M14.2357 47.0408C14.1319 46.8062 14.0003 46.5429 13.8446 46.2482L11.2083 41.1777H7.00646L9.84194 46.2386H1.65062L1 49.2802H9.06455L3.53609 54.9579H8.38979L13.2954 49.6012C13.5561 49.3066 13.8048 49.0036 14.0389 48.6908C14.2743 48.3793 14.3915 48.0582 14.3915 47.7287C14.3927 47.505 14.3408 47.2741 14.2357 47.0408Z" fill="#4143ED"/><path d="M119 65.2267H110.857L116.123 59.6475H111.56L107.23 64.5303C106.849 64.944 106.539 65.3181 106.297 65.6536C106.054 65.9891 105.933 66.356 105.933 66.7516C105.933 66.9416 105.967 67.1173 106.037 67.2808C106.106 67.4444 106.21 67.6549 106.349 67.9134L109.409 73.3386H113.738L110.699 68.2489H118.361L119 65.2267Z" fill="#4143ED"/><path d="M15.153 73.2629H11.1406L14.0473 59.6812H18.0596L15.153 73.2629ZM25.5435 73.2629H20.9144L17.7506 68.1888C17.3728 67.6079 17.1845 67.0788 17.1845 66.6001C17.1845 65.9855 17.613 65.2507 18.4701 64.3968L23.2537 59.6823H27.9095L22.1999 65.2687C22.1649 65.3036 22.0877 65.3758 21.9681 65.4864C21.8475 65.5982 21.7666 65.674 21.7243 65.7173C21.6809 65.7606 21.6169 65.8292 21.5312 65.9218C21.4455 66.0156 21.3851 66.0973 21.3514 66.1647C21.3164 66.2332 21.2825 66.315 21.2487 66.4076C21.2138 66.5015 21.1968 66.5916 21.1968 66.6771C21.1968 66.9849 21.3079 67.2916 21.5312 67.5995L25.5435 73.2629Z" fill="#4143ED"/><path d="M31.8629 59.6812H36.9556C38.7215 59.6812 39.948 60.1081 40.6336 60.962C41.3192 61.8159 41.662 63.0462 41.662 64.6518C41.662 65.199 41.5679 65.9759 41.3795 66.9837C40.916 69.2556 40.1834 70.8708 39.1803 71.8269C38.1772 72.7842 36.5525 73.2617 34.3061 73.2617H30.3963L29.4704 77.6177H25.4834L28.7498 62.2428C29.1276 60.535 30.1645 59.6812 31.8629 59.6812ZM32.4797 63.6018L31.0397 70.3152H33.8691C34.9144 70.3152 35.6821 69.9736 36.171 69.2904C36.6599 68.6073 37.0328 67.668 37.29 66.4714C37.4614 65.7029 37.5471 65.0703 37.5471 64.5748C37.5471 63.9434 37.3925 63.4599 37.0835 63.1268C36.7745 62.7937 36.235 62.6277 35.4636 62.6277H33.7146C33.3367 62.6277 33.0543 62.7011 32.866 62.8453C32.6764 62.9908 32.5485 63.2435 32.4797 63.6018Z" fill="#4143ED"/><path d="M54.9301 73.263H47.2145C45.5848 73.263 44.3935 72.9263 43.6391 72.2504C42.8846 71.5757 42.5068 70.5293 42.5068 69.1114C42.5068 68.1553 42.6613 67.002 42.9703 65.6525C43.2274 64.5425 43.5063 63.632 43.8057 62.9237C44.105 62.2153 44.449 61.6296 44.834 61.1678C45.2203 60.706 45.7213 60.3608 46.3381 60.1299C46.9549 59.899 47.6201 59.7415 48.331 59.656C49.042 59.5706 49.9727 59.5273 51.1218 59.5273C53.1799 59.5273 54.7394 59.8304 55.8028 60.4366C56.8663 61.0427 57.3975 62.1071 57.3975 63.6272C57.3975 64.1059 57.3118 64.7289 57.1403 65.4974C56.9689 66.3008 56.6732 66.8853 56.2531 67.2533C55.833 67.6213 55.2198 67.8041 54.4147 67.8041H46.7244C46.6556 68.1288 46.6218 68.4536 46.6218 68.7783C46.6218 69.3255 46.7932 69.7308 47.136 69.9954C47.4788 70.26 48.0703 70.3923 48.9104 70.3923H55.5458L54.9301 73.263ZM47.3171 65.0368H52.3072C52.8045 65.0368 53.1135 64.7638 53.233 64.2166C53.2668 64.0458 53.2849 63.9267 53.2849 63.8582C53.2849 63.3458 53.0363 62.9742 52.5389 62.7433C52.0416 62.5123 51.4501 62.3969 50.7645 62.3969C49.7192 62.3969 48.9382 62.5893 48.4239 62.973C47.9086 63.3579 47.5392 64.0458 47.3171 65.0368Z" fill="#4143ED"/><path d="M56.0361 73.263L56.653 70.3165H58.0158L64.0596 61.0908C64.7283 60.0493 65.851 59.5273 67.4287 59.5273C68.9713 59.5273 69.8548 60.0481 70.0782 61.0908L72.1616 70.3165H73.9276L73.3108 73.263H56.0361ZM66.3748 63.3711L62.08 70.444H68.5609L67.3007 63.3711C67.2487 63.0813 67.1377 62.9358 66.9663 62.9358C66.7261 62.9358 66.5293 63.0813 66.3748 63.3711Z" fill="#4143ED"/><path d="M88.7839 73.263H84.7719L86.7526 64.9093C86.7697 64.8576 86.7779 64.7806 86.7779 64.6784C86.7779 64.5761 86.7347 64.5244 86.6485 64.5244C86.5801 64.5244 86.4174 64.6531 86.1602 64.9093L80.1933 72.0327C79.7298 72.5968 79.224 72.9684 78.676 73.1476C78.1268 73.3268 77.4581 73.417 76.6698 73.417C76.053 73.417 75.5678 73.2547 75.2165 72.9299C74.8652 72.6052 74.689 72.1866 74.689 71.6743C74.689 71.5889 74.7059 71.4265 74.7409 71.1872L77.1841 59.6813H81.1964L79.2421 68.0351C79.2252 68.1036 79.2167 68.1806 79.2167 68.2659C79.2167 68.3681 79.2687 68.4199 79.3713 68.4199C79.4401 68.4199 79.5004 68.4031 79.5511 68.3681C79.603 68.3345 79.6622 68.2744 79.731 68.189C79.7998 68.1036 79.8421 68.0519 79.8601 68.0351L85.9291 60.7577C86.598 59.9375 87.7121 59.5273 89.273 59.5273C89.9248 59.5273 90.4171 59.7113 90.7516 60.0782C91.0861 60.4462 91.2537 60.8948 91.2537 61.424C91.2537 61.5262 91.2366 61.697 91.2016 61.9363L88.7839 73.263Z" fill="#4143ED"/><path d="M98.8969 73.2627H94.8849L97.1733 62.6287H92.0806L92.6974 59.6821H106.894L106.277 62.6287H101.184L98.8969 73.2627Z" fill="#4143ED"/></g><defs><clipPath id="clip0_2300_558"><rect width="118" height="37.4345" fill="white" transform="translate(1 40.5654)"/></clipPath></defs></svg>