<svg width="120" height="120" viewBox="0 0 120 120" fill="none" xmlns="http://www.w3.org/2000/svg"><path d="M30.5523 73.447V77.2112H28.3804V65.123H32.4319C36.2761 65.123 37.9134 66.4876 37.9134 69.216C37.9134 72.0312 35.9997 73.447 32.4319 73.447H30.5523ZM30.5523 67.1093V71.4609H32.5868C34.6046 71.4609 35.6477 70.8046 35.6477 69.164C35.6477 67.6795 34.7436 67.1132 32.6218 67.1132L30.5523 67.1093Z" fill="#4143ED"/><path d="M48.0862 71.9791H42.4863V75.2258H48.9211V77.2112H40.312V65.123H48.7328V67.1093H42.4863V69.993H48.0862V71.9791Z" fill="#4143ED"/><path d="M59.9997 75.2258H64.1395V65.123H66.313V77.2112H51.5122V65.123H53.6865V75.2258H57.8254V65.123H59.9997V75.2258Z" fill="#4143ED"/><path d="M77.2531 71.9791H71.6533V75.2258H78.0881V77.2112H69.479V65.123H77.8998V67.1093H71.6565V69.993H77.2564L77.2531 71.9791Z" fill="#4143ED"/><path d="M89.5148 71.9791H82.8536V77.2112H80.6802V65.123H82.8536V69.993H89.5148V65.123H91.6891V77.2112H89.5148V71.9791Z" fill="#4143ED"/><path d="M97.0277 74.1546L103.672 65.123H106.038V77.2112H103.863V68.0416L97.1844 77.2112H94.8535V65.123H97.0277V74.1546Z" fill="#4143ED"/><path d="M116.195 73.447H114.178C113.83 73.447 113.517 73.4297 113.224 73.4124L110.754 77.2112H108.212L111.064 73.0148C109.429 72.4106 108.699 71.1848 108.699 69.3541C108.699 66.5397 110.612 65.123 114.16 65.123H118.37V77.2112H116.197L116.195 73.447ZM113.986 71.4609H116.195V67.1093H114.021C111.985 67.1093 110.96 67.7655 110.96 69.4061C110.96 70.8741 111.864 71.4609 113.986 71.4609Z" fill="#4143ED"/><path d="M60.4385 51.0237L63.1888 49.0107H53.9839V61.0989H63.1888V59.0859H56.6111V55.9915H62.222V53.9786H56.6111V51.0237H60.4385Z" fill="#4143ED"/><path d="M47.0358 53.7229H43.8391V51.0237H48.9416L51.6927 49.0107H41.2119V61.0989H46.6934C49.7702 61.0989 51.5346 59.7146 51.5346 57.3017C51.5377 54.9961 49.9362 53.7229 47.0358 53.7229ZM46.5782 59.0867H43.8391V55.7351H46.5782C48.2465 55.7351 49.0218 56.296 49.0218 57.4105C49.0218 58.5495 48.1996 59.0859 46.5782 59.0859V59.0867Z" fill="#4143ED"/><path d="M70.6467 49.0107H65.6348V61.0989H68.2619V57.6779H70.6452C73.8427 57.6779 75.8295 56.0081 75.8295 53.3396C75.8295 50.6712 73.8482 49.0107 70.6467 49.0107ZM70.5904 55.6618H68.2619V51.0237H70.5912C72.2745 51.0237 73.2008 51.8472 73.2008 53.3428C73.2008 54.8383 72.2737 55.6618 70.5912 55.6618H70.5904Z" fill="#4143ED"/><path d="M36.7028 58.482C36.0067 58.8567 35.2265 59.0507 34.4347 59.046C32.0665 59.046 30.3475 57.3675 30.3475 55.0547C30.3475 52.742 32.0665 51.0635 34.4347 51.0635C35.292 51.0507 36.131 51.3111 36.8282 51.8066L38.7126 50.4278L38.5879 50.3189C37.4877 49.3597 36.018 48.8525 34.337 48.8525C32.5098 48.8525 30.8598 49.4623 29.6785 50.5713C28.4972 51.6804 27.8354 53.2532 27.8354 54.9885C27.8354 56.7238 28.4877 58.3219 29.6713 59.4712C30.855 60.6204 32.5098 61.2577 34.3203 61.2577C36.2142 61.2577 37.8673 60.6022 38.9883 59.4096L37.2891 58.1657L36.7028 58.482Z" fill="#4143ED"/><path d="M19.6332 48.9141C20.1144 49.5305 20.5215 50.2005 20.8464 50.9105L11.6311 57.6554L7.77979 55.2583V52.3744L11.6311 54.7716L19.6332 48.9141Z" fill="#4143ED"/><path d="M12.0596 45.019L12.1338 45.023C14.2668 45.126 16.3159 45.8992 17.9824 47.2388L16.0147 48.6792C14.8272 47.8698 13.4377 47.4077 12.0039 47.3403C11.8813 47.3345 11.7579 47.3307 11.6338 47.3306C11.6318 47.3306 11.6299 47.3306 11.6279 47.3306C10.6066 47.3301 9.59486 47.5299 8.65137 47.9185C7.82776 48.2577 7.0701 48.735 6.41114 49.3286L6.41211 49.3296C5.60501 50.0525 4.95906 50.9362 4.51758 51.9224C4.07631 52.9083 3.84832 53.9753 3.84864 55.0542L3.8584 55.4341C3.9015 56.3193 4.0979 57.1918 4.44043 58.0122C4.78175 58.8297 5.26208 59.5817 5.85938 60.2358L5.86231 60.2349C6.59043 61.0362 7.48036 61.6765 8.47364 62.1148C9.46696 62.5531 10.542 62.7793 11.6289 62.7788C12.65 62.7798 13.6611 62.5809 14.6045 62.1929C15.4291 61.8537 16.188 61.376 16.8477 60.7817L16.8457 60.7798C17.6528 60.0569 18.2979 59.1733 18.7393 58.187C19.1807 57.2008 19.4087 56.1334 19.4082 55.0542V54.8482L21.5859 53.2554C21.6929 53.8491 21.7464 54.4511 21.7451 55.0542C21.7469 56.4578 21.4513 57.8463 20.8779 59.1294C20.3046 60.4125 19.4654 61.5618 18.416 62.5024L18.415 62.5015C17.5573 63.2741 16.5712 63.8953 15.499 64.3364C14.2722 64.8413 12.957 65.1011 11.6289 65.1001C11.4591 65.1001 11.2905 65.0953 11.123 65.0874C9.88254 65.027 8.66231 64.7402 7.52442 64.2388C6.23215 63.6694 5.07423 62.8366 4.12696 61.7944L4.12793 61.7925C3.34998 60.9409 2.72455 59.9614 2.28028 58.897C1.77188 57.6788 1.51073 56.3728 1.51172 55.0542C1.51173 54.8864 1.51649 54.7194 1.52442 54.5532C1.58514 53.3211 1.87375 52.1092 2.37891 50.979C2.92443 49.7586 3.71187 48.6614 4.69043 47.7476C5.58266 46.9103 6.62014 46.2391 7.75586 45.772C8.98305 45.2673 10.2987 45.0087 11.627 45.0103H11.6367C11.778 45.0102 11.9189 45.0133 12.0596 45.019Z" fill="#4143ED"/></svg>