<svg width="136" height="24" viewBox="0 0 136 24" fill="none" xmlns="http://www.w3.org/2000/svg"><path d="M6.31979 11.881L12.6396 23.7622H0L6.31979 11.881Z" fill="white"/><path d="M12.6391 0L18.9589 11.8812H6.31934L12.6391 0Z" fill="white"/><path d="M18.9597 0L22.1196 5.9406H15.7998L18.9597 0Z" fill="white"/><path d="M22.1199 5.94043L25.2797 11.881H18.96L22.1199 5.94043Z" fill="white"/><path d="M25.279 11.8818L28.4389 17.8224H22.1191L25.279 11.8818Z" fill="white"/><path d="M28.4402 17.8218L31.6001 23.7624H25.2803L28.4402 17.8218Z" fill="white"/><path d="M18.9592 11.8809L25.279 23.7621H12.6394L18.9592 11.8809Z" fill="white"/><path d="M132.83 10.6338H136L130.533 23.7495H127.737L125.541 18.1178L123.394 23.7495H120.573L115.131 10.6338H118.276L122.171 20.5457L123.693 16.2655L121.422 10.6588H124.193L125.541 14.6636L126.914 10.6588H129.685L127.413 16.2655L128.961 20.5457L132.83 10.6338Z" fill="white"/><path d="M107.945 24C106.88 24 105.923 23.8248 105.074 23.4744C104.225 23.1073 103.502 22.6067 102.902 21.9726C102.32 21.3385 101.871 20.6126 101.554 19.795C101.238 18.9773 101.08 18.1179 101.08 17.2169C101.08 16.2991 101.238 15.4314 101.554 14.6137C101.871 13.7961 102.32 13.0702 102.902 12.4361C103.502 11.802 104.225 11.3098 105.074 10.9594C105.923 10.5922 106.88 10.4087 107.945 10.4087C109.01 10.4087 109.959 10.5922 110.791 10.9594C111.64 11.3098 112.364 11.802 112.963 12.4361C113.562 13.0702 114.011 13.7961 114.311 14.6137C114.627 15.4314 114.785 16.2991 114.785 17.2169C114.785 18.1179 114.627 18.9773 114.311 19.795C114.011 20.6126 113.562 21.3385 112.963 21.9726C112.38 22.6067 111.665 23.1073 110.816 23.4744C109.967 23.8248 109.01 24 107.945 24ZM104.525 17.2169C104.525 17.9844 104.675 18.6686 104.974 19.2693C105.274 19.8534 105.682 20.3122 106.198 20.646C106.713 20.9797 107.296 21.1466 107.945 21.1466C108.577 21.1466 109.152 20.9797 109.667 20.646C110.183 20.2956 110.591 19.8283 110.891 19.2443C111.207 18.6436 111.365 17.9594 111.365 17.1918C111.365 16.4409 111.207 15.7651 110.891 15.1644C110.591 14.5637 110.183 14.0965 109.667 13.7627C109.152 13.429 108.577 13.2621 107.945 13.2621C107.296 13.2621 106.713 13.4373 106.198 13.7877C105.682 14.1215 105.274 14.5887 104.974 15.1894C104.675 15.7735 104.525 16.4493 104.525 17.2169Z" fill="white"/><path d="M93.9561 5.47754H97.3012V19.5444C97.3012 20.1451 97.401 20.554 97.6007 20.7709C97.8004 20.9711 98.075 21.0712 98.4245 21.0712C98.6908 21.0712 98.9654 21.0379 99.2483 20.9711C99.5312 20.9044 99.7809 20.821 99.9972 20.7208L100.447 23.2739C99.9972 23.4908 99.473 23.6577 98.8739 23.7745C98.2747 23.8913 97.7339 23.9497 97.2512 23.9497C96.2028 23.9497 95.3873 23.6744 94.8048 23.1237C94.239 22.5564 93.9561 21.7554 93.9561 20.7208V5.47754Z" fill="white"/><path d="M79.9705 23.7493V5.97803H91.878V9.00666H83.4154V13.5872H90.4551V16.3905H83.4154V23.7493H79.9705Z" fill="white"/><path d="M71.2857 19.1689C71.2857 20.1701 71.0277 21.0127 70.5118 21.6969C69.9959 22.3644 69.2969 22.8733 68.4149 23.2237C67.5495 23.5741 66.6009 23.7493 65.5691 23.7493H57.0066V5.97803H66.4927C67.3248 5.97803 68.0404 6.2033 68.6396 6.65384C69.2553 7.08769 69.7213 7.65504 70.0375 8.35588C70.3704 9.04004 70.5368 9.75756 70.5368 10.5085C70.5368 11.3595 70.3204 12.1688 69.8877 12.9364C69.455 13.704 68.8226 14.2713 67.9905 14.6384C69.0057 14.9388 69.8045 15.4811 70.387 16.2654C70.9861 17.0496 71.2857 18.0175 71.2857 19.1689ZM67.8158 18.5181C67.8158 18.0675 67.7242 17.6671 67.5412 17.3166C67.3581 16.9495 67.1085 16.6659 66.7923 16.4656C66.4927 16.2487 66.1432 16.1402 65.7438 16.1402H60.4515V20.8208H65.5691C65.9851 20.8208 66.3596 20.7207 66.6924 20.5205C67.0419 20.3035 67.3165 20.0199 67.5162 19.6695C67.7159 19.319 67.8158 18.9352 67.8158 18.5181ZM60.4515 8.93157V13.4119H65.0448C65.4276 13.4119 65.7771 13.3202 66.0933 13.1366C66.4095 12.9531 66.6591 12.6944 66.8422 12.3607C67.0419 12.027 67.1417 11.6265 67.1417 11.1592C67.1417 10.7087 67.0502 10.3166 66.8671 9.98283C66.7007 9.6491 66.4677 9.39045 66.1682 9.2069C65.8853 9.02335 65.5607 8.93157 65.1946 8.93157H60.4515Z" fill="white"/><path d="M45.0521 5.97803H48.547L55.0625 23.7493H51.5177L49.8701 19.319H43.6792L42.0565 23.7493H38.5117L45.0521 5.97803ZM49.246 16.8911L46.7996 9.55732L44.2533 16.8911H49.246Z" fill="white"/></svg>