<svg width="40" height="40" viewBox="0 0 40 40" fill="none" xmlns="http://www.w3.org/2000/svg"><g clip-path="url(#clip0_2304_2990)"><path d="M20 40C31.0457 40 40 31.0457 40 20C40 8.9543 31.0457 0 20 0C8.9543 0 0 8.9543 0 20C0 31.0457 8.9543 40 20 40Z" fill="#F0F0F0"/><path d="M11.3042 26.9561L13.0433 38.7557C15.2099 39.5597 17.5534 39.9996 19.9998 39.9996C28.599 39.9996 35.93 34.5721 38.7558 26.9561H11.3042Z" fill="black"/><path d="M11.3042 13.0435L13.0433 1.24383C15.2099 0.439844 17.5534 0 19.9998 0C28.599 0 35.93 5.4275 38.7558 13.0435H11.3042Z" fill="#6DA544"/><path d="M0 20.0002C0 28.5995 5.42758 35.9303 13.0435 38.7562V1.24414C5.42758 4.07 0 11.4009 0 20.0002Z" fill="#A2001D"/></g><defs><clipPath id="clip0_2304_2990"><rect width="40" height="40" rx="20" fill="white"/></clipPath></defs></svg>